<?xml version="1.0" encoding="utf-8"?>
<!-- Generator: Adobe Illustrator 25.0.1, SVG Export Plug-In . SVG Version: 6.00 Build 0)  -->
<svg version="1.1" id="圖層_1" xmlns="http://www.w3.org/2000/svg" xmlns:xlink="http://www.w3.org/1999/xlink" x="0px" y="0px"
	 viewBox="0 0 512 512" style="enable-background:new 0 0 512 512;" xml:space="preserve">
<style type="text/css">
	.st0{fill:#FF9100;}
</style>
<g>
	<path class="st0" d="M163.63,298.89c48.96-23.31,64.28-62.92,62.32-113.12c36.01,0,70.22,0,104.3,0
		c26.06,100.06,14.63,153.39-37.48,176.26C247.31,381.98,195.59,357.43,163.63,298.89z"/>
	<path class="st0" d="M509.01,65.43c14.02,113.9-34.6,159.45-153.96,151.55c-35.89-62.35,24.42-89.34,48.7-128.4
		C429.18,47.68,472.55,76.48,509.01,65.43z"/>
	<path class="st0" d="M490.42,294.48c-64.14,63.77-123.34,122.63-184.38,183.31c-13.89-15.98-29.35-33.76-46.32-53.29
		c64.95-62.86,126.7-122.63,191.04-184.89C463.36,257.03,477.33,276.36,490.42,294.48z"/>
	<path class="st0" d="M129.52,118.34c-46.14-1.09-87.18,38.56-87.93,84.93c-0.71,44.51,41.01,87.92,85.38,88.81
		c44.48,0.9,83.68-40.19,84.29-88.35C211.85,156.93,175.95,119.43,129.52,118.34z M126.42,255.2c-27.61,0-50-22.39-50-50
		c0-27.61,22.39-50,50-50c27.61,0,50,22.39,50,50C176.42,232.82,154.04,255.2,126.42,255.2z"/>
	<path class="st0" d="M349.51,489.96c54.69-49.9,104.26-95.13,150.09-136.96C524.97,415.25,461.07,485.04,349.51,489.96z"/>
	<path class="st0" d="M132.76,46.49c0,19.28,0,38.04,0,62.16c-8.55-4.77-20.51-8.35-20.5-11.9c0.14-54.12-39.38-34.05-66.39-35.64
		c-8.29-0.49-20.62,8.93-24.59,5.73C12.25,59.59,7.27,47.31,0.65,37.07c10.01-5.25,27.79-16.37,28.89-14.9
		C56.95,58.5,97.78,37.05,132.76,46.49z"/>
	<circle class="st0" cx="126.42" cy="205.2" r="25.86"/>
</g>
</svg>
