<?xml version="1.0" encoding="utf-8"?>
<!-- Generator: Adobe Illustrator 25.0.1, SVG Export Plug-In . SVG Version: 6.00 Build 0)  -->
<svg version="1.1" id="圖層_1" xmlns="http://www.w3.org/2000/svg" xmlns:xlink="http://www.w3.org/1999/xlink" x="0px" y="0px"
	 viewBox="0 0 670.2 672.5" style="enable-background:new 0 0 670.2 672.5;" xml:space="preserve">
<style type="text/css">
	.st0{fill:#BCAAA4;}
	.st1{fill:#442B27;}
	.st2{fill:#ECE8E6;}
	.st3{fill:#EFEBEB;}
	.st4{fill:#3D332E;}
	.st5{fill:#664A46;}
	.st6{fill:#B49E99;}
	.st7{fill:#E8E3E1;}
	.st8{fill:#311F1D;}
	.st9{fill:#422926;}
	.st10{fill:#44302A;}
	.st11{fill:#EAE8E7;}
	.st12{fill:#B4A6A3;}
	.st13{fill:#C0B4AF;}
	.st14{fill:#5B3F3C;}
	.st15{fill:#AF9D9D;}
	.st16{fill:#564540;}
	.st17{fill:#735342;}
	.st18{fill:#B0A2A0;}
	.st19{fill:#AEA29F;}
	.st20{fill:#EAE5E5;}
	.st21{fill:#AEA0A0;}
	.st22{fill:#542C23;}
	.st23{fill:#D39F50;}
	.st24{fill:#5F4C49;}
	.st25{fill:#AEA5A2;}
	.st26{fill:#7F675E;}
	.st27{fill:#D6CFCC;}
	.st28{fill:#442922;}
	.st29{fill:#D4CBC9;}
	.st30{fill:#9D817B;}
	.st31{fill:#A28987;}
	.st32{fill:#EBE5E3;}
	.st33{fill:#E2D9D3;}
	.st34{fill:#CBB1A8;}
	.st35{fill:#2F1D19;}
	.st36{fill:#352521;}
	.st37{fill:#D9D0CB;}
	.st38{fill:#C6C0BC;}
	.st39{fill:#57504E;}
	.st40{fill:#D4CCCA;}
	.st41{fill:#4A342D;}
	.st42{fill:#322828;}
	.st43{fill:#5D524E;}
	.st44{fill:#3E261F;}
	.st45{fill:#5F453C;}
	.st46{fill:#5D4139;}
	.st47{fill:#554844;}
	.st48{fill:#685B56;}
	.st49{fill:#86665F;}
	.st50{fill:#E8E3E5;}
	.st51{fill:#6C9E8B;}
	.st52{fill:#E3DDB0;}
	.st53{fill:#754B49;}
	.st54{fill:#503E36;}
	.st55{fill:#E3DEDF;}
	.st56{fill:#B6AAA9;}
	.st57{fill:#95776B;}
	.st58{fill:#8F736A;}
	.st59{fill:#8D6D66;}
	.st60{fill:#3F3A35;}
	.st61{fill:#443334;}
	.st62{fill:#5D5758;}
	.st63{fill:#F7F4E6;}
	.st64{fill:#E7CDAB;}
	.st65{fill:#EFE1C1;}
	.st66{fill:#C7B3A5;}
	.st67{fill:#F8F5F1;}
	.st68{fill:#D5C4BA;}
	.st69{fill:#F2EEEC;}
	.st70{fill:#B9ADAA;}
	.st71{fill:#D8B25E;}
	.st72{fill:#69442F;}
	.st73{fill:#F6D553;}
	.st74{fill:#C88039;}
	.st75{fill:#BEA39B;}
	.st76{fill:#CB873A;}
	.st77{fill:#F3C447;}
	.st78{fill:#EBB243;}
	.st79{fill:#AD938B;}
	.st80{fill:#54342A;}
	.st81{fill:#B99D96;}
	.st82{fill:#6E4638;}
	.st83{fill:#3D261E;}
	.st84{fill:#F6F3F1;}
	.st85{fill:#BBA295;}
	.st86{fill:#DCA043;}
	.st87{fill:#C3ADA6;}
	.st88{fill:#5B4844;}
	.st89{fill:#EBE9E6;}
	.st90{fill:#C07A30;}
	.st91{fill:#B1A3A1;}
	.st92{fill:#BB8045;}
	.st93{fill:#E1AA3F;}
	.st94{fill:#C99C4E;}
	.st95{fill:#CBC1B5;}
	.st96{fill:#312220;}
	.st97{fill:#D0CBC3;}
	.st98{fill:#E1B05F;}
	.st99{fill:#9B837C;}
	.st100{fill:#DDCEC8;}
	.st101{fill:#281C15;}
	.st102{fill:#5F8B7F;}
	.st103{fill:#87695A;}
	.st104{fill:#311F1B;}
	.st105{fill:#C5B2A9;}
	.st106{fill:#DAD0CC;}
	.st107{fill:#574740;}
	.st108{fill:#E0D3CD;}
	.st109{fill:#846659;}
	.st110{fill:#B19178;}
	.st111{fill:#887161;}
	.st112{fill:#79655D;}
	.st113{fill:#BEAFA8;}
	.st114{fill:#FAF7F5;}
	.st115{fill:#D7C9C0;}
	.st116{fill:#F5EFEB;}
	.st117{fill:#D4C4BD;}
	.st118{fill:#56382F;}
	.st119{fill:#664131;}
	.st120{fill:#A37148;}
	.st121{fill:#956441;}
	.st122{fill:#D4B399;}
	.st123{fill:#CDC5BC;}
	.st124{fill:#9B7048;}
	.st125{fill:#41251F;}
	.st126{fill:#3E241E;}
	.st127{fill:#F3EFD2;}
	.st128{fill:#E0CFBD;}
	.st129{fill:#775439;}
	.st130{fill:#CBA78E;}
	.st131{fill:#7C5C52;}
	.st132{fill:#452A20;}
	.st133{fill:#F6CD5D;}
	.st134{fill:#F0E29A;}
	.st135{fill:#DBA147;}
	.st136{fill:#916646;}
	.st137{fill:#53706D;}
	.st138{fill:#2D271F;}
	.st139{fill:#D6BFA0;}
	.st140{fill:#6D4C3C;}
	.st141{fill:#EDDDC2;}
	.st142{fill:#F5E5C0;}
	.st143{fill:#F6E1BA;}
	.st144{fill:#F4E7C9;}
	.st145{fill:#D9B896;}
	.st146{fill:#C39A7E;}
	.st147{fill:#A77C64;}
	.st148{fill:#F2E8CE;}
	.st149{fill:#3F2F27;}
	.st150{fill:#452924;}
	.st151{fill:#5F4235;}
	.st152{fill:#B5ABA5;}
	.st153{fill:#514340;}
	.st154{fill:#527272;}
	.st155{fill:#BC9979;}
	.st156{fill:#212725;}
	.st157{fill:#6BA5A2;}
	.st158{fill:#EAE1DC;}
	.st159{fill:#6A5550;}
	.st160{fill:#D0CAC4;}
	.st161{fill:#B4AEA6;}
	.st162{fill:#5B3926;}
	.st163{fill:#B39583;}
	.st164{fill:#714D37;}
	.st165{fill:#D0C6BF;}
	.st166{fill:#9E8073;}
	.st167{fill:#EFEACF;}
	.st168{fill:#432926;}
	.st169{fill:#35261F;}
	.st170{fill:#E9925D;}
	.st171{fill:#553D30;}
	.st172{fill:#B08B64;}
	.st173{fill:#DFCDB3;}
	.st174{fill:#5F837D;}
	.st175{fill:#A0C5CD;}
	.st176{fill:#F2EDEA;}
	.st177{fill:#F0E8E8;}
	.st178{fill:#D4D1C9;}
</style>
<path class="st0" d="M369.1,493.1c-10.9-5.8-22-1.3-33-0.5c-6.4,0.5-12.8,2.3-19.3,1.8c-10.5-0.8-21,2.3-31.5,0
	c-0.7-0.8-0.7-2,0-2.7c1.4-1.3,3.1-1.2,4.8-1.1c8.4,1.6,17,1.6,25.4,0.1c18.6-1.1,37.1-3.6,55.5-6.6c8.1-1.3,16.4-3,24.7-2.5
	c3.9,0.2,7.5-2.4,11.5-1.2c19.5,10,37.7,5.3,55.4-4.8c1.8-1,3.4-2.3,5.6-2.2c10.7,1.4,21.4,2.7,32,4.2c3.7,0.5,7.1,1,8,5.4
	c1,4.8-1.3,7.4-5.6,8.7c-18.2,4.3-36.7,5.1-55.3,6.3c-9.5,0.6-18.9,0.9-28.4,0.9c-3.5,0-7.1-0.3-10.5-0.8c-4.8-0.6-9.5-0.9-13.7,2.8
	c-2.7,2.4-6.5,2.4-10.1,2.5c-7.1,0.1-14.2-0.5-21.2,0.3c-7,0.8-9.7,2.8-7.1,10.2c0.6,1.4,0.6,2.9,0.1,4.4c-2.3,2.2-3.6,0.1-4.8-1.3
	c-3.8-4.6-3.4-10.8,1.1-15.1c6.9-6.6,15.8-7.6,24.7-8.6c2.1-0.1,4.2-0.1,6.3,0c-3.8,0.1-8.1-0.5-12.2,0.9
	C370.5,494.5,369.5,494,369.1,493.1z"/>
<path class="st1" d="M527.7,184.8c3.8,12.3,0.4,18-12.2,19.9c-4.5,0.7-9.3,0.7-12.2,5.3c-0.7,0.9-1.8,1.4-2.9,1.4
	c-11.6-1.3-15.3,9.5-22.6,14.7c-2.2,1.6,0.6,3.2,1.8,4.4c7.8,7.7,14.8,16.2,20.8,25.4c0.4,0.9-0.1,1.5-0.8,1.9
	c-4.3-1.1-7.3,0-7.8,4.9c-1.3,0.5-1.9,1.8-2.8,2.7c-3.4-0.2-3.8-3.2-4.9-5.3c-2.6-4.9-5-9.9-9.4-13.5c-7.6-7.5-13.8-16.4-22.8-22.5
	c-3.8-2.3-7.5-4.8-11-7.5c-7.3-5.9-15.8-10-24.9-12c-2.5-0.6-6.4-0.1-6.2-4.6c3.9-2.7,7.7-0.3,11.2,0.5c8,1.9,16.5,2.6,23.7,7.2
	c2.1,1.3,4.6,1.8,7,1.4c7.4,1.9,13.1,6.6,18.5,11.6c2.7,2.6,4.6,3,7.2,0.3c4.4-4.8,10.2-7.9,14.9-12.5c2.5-2.4,3.5-4.6,2.5-8.3
	c-1.8-6.2,0.2-11.1,4.6-13.9c0.8,0.1,1.5,0.7,1.8,1.4c0.3,0.7,0.3,1.4,0.1,2.2c0.3-0.2,0.2-0.6,0.4-0.9c2.7-4.7,7.1-6,12.2-6
	c-1.4,0.1-2.9,0-4.2-0.3c-1.1-0.6-2-1.3-1.6-2.8C513.8,175,524.5,177.8,527.7,184.8z"/>
<path class="st2" d="M164.8,458.8c-3-2,0.5-1.7,0.8-1.8c5.6-1.3,11.4-1.9,17.1-1.8c1.2,0.1,2.8,0.5,3.4-1.1c0.4-1.2-0.8-2-1.5-2.8
	c-4.8-5.3-6.6-12.2-8.3-18.7c-6.7-25.5-13-51.1-18.9-76.9c-1.1-4.9-3.3-10.5,0.7-15.5c3.1-3.9,7.5-4.5,12.1-4.6
	c6.5-0.1,13-0.2,19.6,0c26.4,0.7,52.8-1.9,79.3-1c4.7,0.1,5.6-1.5,4-5.5c-5.7-14.2-3-27.6,3.3-40.9c2.3-4.9,4.3-5.7,6.9-2.6
	c1.3,3.8-1.6,6.4-3.1,9.2c-7.5,13.9-7,27.6,0.5,41.3c3.6,6.6,8.4,12.9,8.6,21c-1.3,4,0.2,7.8,1,11.5c5.3,24.2,10.9,48.3,17.3,72.2
	c0.9,3.5,2,6.4,6.5,6.1c1.5-0.1,3.4,0.4,3.6,2c0.4,2.3-2,2.2-3.4,2.8c-0.7,0.3-1.4,0.7-2,1.1c-0.4,0.3-0.8,0.7-1.2,1.1
	c-1.1,1.4-2.2,3.2-4.4,2.8c-2.5-0.5-2.8-2.8-3.2-4.7c-1.1-4.3-1.8-8.6-3-12.9c-4.8-17.8-8.7-35.8-13.4-53.6
	c-2.5-12.4-5.4-24.6-8.1-36.9c-1.5-6.5-4.2-8.8-11.6-8.8c-10.9,0-21.9-1-32.9,0.8c-4.7,0.8-9.7,0.2-14.5,0.2
	c-14.7,0-29.5,0.1-44.2,0c-4.5-0.1-8.9,0.5-13.2,1.9c-2.6,1.2-3,2.8-2.5,5.8c2.6,14.4,6.7,28.5,9.9,42.7
	c3.6,16.1,8.3,31.9,12.3,47.9c2.5,10,9.4,14.6,19,16.2c1.4,0.9,3.2,1.7,2.2,3.8c-0.8,1.8-2.5,1.5-4.3,1.6c-8,0.2-15.8-1.7-23.8-1.3
	C171.8,459.4,168.2,461.8,164.8,458.8z"/>
<path class="st3" d="M527.7,184.8c-5.5-6.3-12.3-6.7-19.7-4.6c-2.5,2.8-5.6,5.1-9,6.6c-3.3,4.7-4.9,9.6-1.6,15
	c1.5,2.4-0.5,3.5-1.7,4.6c-6.8,6-13.8,11.8-20.6,17.9c-2.2,2-2.8,0-3.9-1c-5.8-5.3-12-10-19.2-13.1c-1.3,0.1-2.6-0.2-3.8-0.9
	c-14.5-6.2-30-9.9-45.7-11c-16.6-1.3-32.4,0.7-47.6,7.4c-8.9,3.3-15.8,9.5-22.8,15.6c-3.5,3.1-6.7,6.4-9.8,9.9c-3,2-4.5,5.3-6.8,7.9
	c-0.9,0.8-1.7,1.7-2.4,2.7c-2.6,4-5.3,8-7.8,12.1c-2.3,3.8-4.1,7.8-5.4,12.1c-0.7,2.3-1.5,4.6-3.8,5.9c-3,0.8-3.4-1.3-3.5-3.4
	c-0.2-2.5-0.1-5.1-0.1-7.6c0-1.3,0.1-2.6,0.3-3.9c0.6-1.6,0.8-3.2,0.8-4.9c-0.5-9.1,0.8-18.1,1.3-27.1c0.1-1.1,1.4-2.4,1-3.1
	c-3.4-6.1-0.7-11.4,1.5-17c1.6-4-1.6-8.4,0.3-12.5c0.4-1.3,0.9-1.4,1.8-0.4c4.4,4.9,4.9,12.1,1.2,17.6c-2.5,3.8-4.3,7,0.2,10.5
	c1.3,0.9,1.6,2.7,0.8,4.1c-5.4,6.5-2.6,14.4-3.9,21.6c-0.8,4.5-0.1,9.2-0.1,14.8c3.4-6.9,6.8-13.1,9.8-19.5c1-2.2,1.7-4.5,3.5-6.3
	c12.5-12.8,25.4-25,41.6-33.3c7.9-4,16.3-6.9,24.9-7.4c17.2-1.1,34.5-1,51.4,4.2c15.8,4.8,30.8,10.9,42.9,22.4c2,1.9,3,1.1,4.6-0.4
	c2.5-2.4,5.3-4.7,8.1-6.8c5.7-3.8,9.2-8,8.1-15.8c-1.3-9.5,3.8-16.5,12.5-20.2c7.1-3,14.2-1.7,20.6,2.4
	C527.1,180.7,530.3,181.9,527.7,184.8z"/>
<path class="st4" d="M294.4,257.5c0,1.1-0.1,2.1-0.1,3.1c-0.2,4.6-3.1,9.7,2.6,13.2c1.5,2.7-1,4.8-1.1,7.2c-2.6,7.5-2.8,15.3-3.1,23
	c-0.6,11.3-0.3,22.7,1,33.9c1,8.8,2.3,17.5,5.9,25.7c0.9,2,2,4,2.4,6.2c0.2,1.3-0.4,2.5-1.5,3.1c-1.1,0.4-2.4,0.2-3.4-0.5
	c-4.2-4.6-8.5-9.2-9.4-15.8c-2-6.9-4.9-13.6-8.5-19.8c-8.4-14.7-7.9-29.7,0.2-44.5c1.2-2.3,2.6-4.5,3.9-6.7c1.7-0.9,1.8-2.2,0.9-3.7
	c6.9-8.3,6.1-18.4,6.5-28.2c1.4-3.7,0.7-7.5,1-11.3c0.2-1.4,0.5-2.7,2-3.2C296.1,245.2,294.5,251.4,294.4,257.5z"/>
<path class="st5" d="M522.4,521.2c2.6,1,3.7,3.2,4.5,5.6c1.6,5.8-0.2,10.9-3.3,15.8c-7.4,6.3-16.5,7.3-25.7,7.5
	c-15.3,0.4-30.3-2.6-45.5-4.7c-5.9-0.8-11.7-1.9-17.6-2.8c0.5-0.6,1.3-0.8,2-0.7c-0.6-0.3-1.2-0.4-1.9-0.5
	c-18.6-1.7-37-4.4-55.3-7.8c-1.6-0.3-3.2-0.8-4.8-1.5c-1.3-0.6-3.3-0.7-3.5-2.3c-0.3-2.1,1.8-2.4,3.2-3.2c9.6-0.3,18.7,2.9,28.1,4
	c27.4,3.1,54.5,7.6,81.9,10.9c9,1.1,17.8,1.2,26.5-1.4c9.1-2.7,10.3-4.9,8.2-14c-0.1-0.6-0.1-1.1-0.1-1.7
	C519.5,522.6,520.8,521.8,522.4,521.2z"/>
<path class="st6" d="M285.3,492.1v2.3l0,0c-1.9,1-4.1,0.8-6,0.5c-11.5-1.8-23-0.1-34.4-0.7c-12-0.6-24.2-1-35.8-4.5
	c-5.9-1.8-12-2.4-17.8-4.2c-12.3-3-24.5-6.9-37.1-9c-1.6-0.3-2.9-1-2.9-2.8c0-1.8,1.4-2.3,3-2.7c3.4-0.8,7,1,10.2-1.3
	c9.6,4.8,20.2,4.5,30.4,6.3c3.6,0.6,7.4,0.6,10,3.9c-0.3,5.8,4.2,3.5,7,4.2c12.6,2.8,25.5,3.8,38.4,3c1.2-0.2,2.4-0.5,3.5-1
	c10-1.6,19.6,1.4,29.2,3.5C284.4,489.8,285.6,490.4,285.3,492.1z"/>
<path class="st7" d="M506.6,264.3c1.4-1.2,2-0.1,2.5,0.9c2.9,6.5,7.6,11.9,11.5,17.7c6.6,9.7,10.6,21,11.6,32.7
	c0.8,8.7-0.8,17.5-4.6,25.4c-2,4.1-2.1,7,1.6,11.1c14.8,16.7,25.8,35.9,30.7,57.8c3.5,15.7,3.2,31.8-3.2,47.1
	c-2.4,5.5-5.7,10.4-9.9,14.7c-1.1,1.1-2.3,3.5-4.4,1c-0.4-2.2,1.2-3.3,2.5-4.7c7.8-8.5,10.6-18.9,11.8-30c1.1-9.7,0.3-19.6-2.2-29
	c-0.5-7.8-4.1-14.6-7.4-21.3c-4.2-8.4-8.7-16.8-14.5-24.3c-2.3-4-5.1-7.7-8.4-11c-1.9-1.9-3.5-3.8-3-6.8c1-2.8,3.2-5.2,3.1-8.5
	c4.1-10.9,4.2-21.9,1.2-33.2c-2.5-9.1-7.2-17-12.9-24.4c-1.3-1.8-2.6-3.6-3.6-5.6C508.6,270.7,504.8,268.2,506.6,264.3z"/>
<path class="st8" d="M556,408.3c3.1,11.6,3.6,23.8,1.5,35.6c-1.9,11.4-6.4,21.2-15.2,28.8c-9.9,5.6-20,6-30.2,0.8
	c-1.3-2.1-3.5,0.3-5-1c-10.1-4.9-17.8-12.6-24.5-21.2c-3,0.8-2.1,6.3-6.5,4.9c-1.4-1.6-1.7-3.9-0.8-5.8c4.4-9,2-18.6,2.8-28
	c0.2-2.3-0.7-5,2-6.5c3.4,0.5,3.6,3.4,3.9,5.9c0.4,3.3,0.9,6.6,1.1,9.9c0.4,9.2,4.4,17.8,11,24.2c5.9,6,12.9,10.7,20.6,13.8
	c5.5,1.6,10.9,2.8,16.5,0.7c11.8-3.4,16-13.1,18.6-23.5c2.8-11,2-22.3,1.3-33.5C553.6,411.3,552.6,408.6,556,408.3z"/>
<path class="st9" d="M297.7,192.2c3.8,6.8,4.1,13.4-1.2,19.5c-3.4,3.9,0.7,6,2.2,8.6c1.6,2.9,1.6,4-2,3.6c-2,1.2-3.4,0.2-4.5-1.4
	c-0.4-0.5-0.6-1.1-0.7-1.6c-0.4-3.8-2.2-6.1-6.1-7.7c-7.9-3.2-12.2-14-9.3-22c2.4-6.6,11.6-8.3,16.9-3.1L297.7,192.2z"/>
<path class="st10" d="M204.5,481.3c-2.4-2.8-5.9-2.9-9.1-3.4c-7.9-1.2-15.8-2.4-23.7-3.5c-3-0.3-5.6-2-7.1-4.6
	c-0.5-3.6-5.9-7.4,0.2-10.9c6.5-0.4,12.9-1.4,19.4-0.9c6.2,0.5,12.3,0.8,18.7,1.2c-0.4-2.2-1.8-2.1-2.6-2.8c0.2-3.2,2.8-2.5,4.8-2.7
	c1.7,0.6,2.1,2,2.2,3.6c-0.1,2-0.4,4-0.9,6c-0.6,2.3-0.9,4.6-0.9,6.9c0.2,4.4,1.7,7.3,6.2,8.4c1.3,0.3,2.4,1,3.2,2
	c5.1,4.1,11.4,3.5,17.3,4.1c5.7,0.7,11.5-0.1,17.3,0.3c1.8,0.1,5.1,0.2,2.1,3.6c-14,1.8-27.6-0.3-41.2-3.1
	C207.9,485,205.7,483.4,204.5,481.3z"/>
<path class="st11" d="M293,188c-8.9-2.7-13.4-1.5-15.5,4.4c-2.6,7.1,1.9,17.8,8.7,20c4.6,1.5,6.4,4.3,5.9,8.9
	c3.1,6.9,1.3,13.9,0.5,20.9c-0.1,2.8,0.1,5.6-0.1,8.4c-1.9,6.7-0.3,13.7-2.1,20.4c-0.2,1.1-0.8,2.1-1.7,2.8
	c-0.8-5.1-0.8-10.3,0-15.4c0.7-11.1,1.5-22.2,2.2-33.3c0.3-5.3-0.8-9.3-6.8-11.8c-8.2-3.4-12.4-15.4-9.5-23.7c1.1-3.3,4-5.6,7.5-5.9
	c4.2-0.5,8.7-1.1,12,2.6C295,187.4,293.8,187.8,293,188z"/>
<path class="st5" d="M369.1,493.1c5.4-0.2,10.7-1.8,16.1-1.3c2.7,0.2,5.4,0.2,7.9,3.5c-8.2-0.9-15.5-1.6-22.8,0.1
	c-3.8,0.9-7.5,2.1-11.1,3.7c-9.7,4.4-10.9,11.9-3.4,19.7c6.3,1.8,12.8,3.3,17,9.1c-3.8,4.4-7.7,0.2-11.6,0.3c-1-0.4-2-0.9-3-1.4
	c-6.6-4.2-11.6-9.6-10.4-18.1c1.1-8.5,8.2-11.2,14.9-14C364.7,493.8,367,493.6,369.1,493.1z"/>
<path class="st0" d="M191.3,485.5c8-0.1,15.8,2,23.4,4.1c5.4,1.4,10.8,2.2,16.3,2.6c9.1,0.8,18.3,1,27.5,0.5
	c9.2-0.5,17.9,1.4,26.8,1.7c-1,0.5-2,0.8-3.1,1c-23.5,0.4-47.1,0.9-70.3-3.6C204.9,490.4,197.7,489.1,191.3,485.5z"/>
<path class="st12" d="M512.4,493.3c5.2,1.6,10.5,1.9,15.8,2.3c3.4,0.3,8.7,0.6,8.8,4c0,2.8-5.4,2.3-8.6,2.6
	c-6.3,0.7-13.3,0.1-16.1,8c-1.8,0.1-3.3-1.2-3.4-3c0-0.2,0-0.4,0-0.6C509.5,502.1,508.4,497,512.4,493.3z"/>
<path class="st13" d="M172.3,491c3.2,2,3.1,5.4,2.2,7.9c-1.3,3.2-4.4,5.3-7.9,5.4c-5.2,0.2-10.4,0.1-15.6,0.1c-2.6,0-4.4-1-4.3-3.9
	c0.1-3.3,2.5-4,5.1-3.7c4.7,0.7,9.3,2.8,15,1.6c-2.5-1.2-5.1,0-6.8-1.8C164.1,495,167.8,492.2,172.3,491z"/>
<path class="st14" d="M361.2,528.2c3.8-1.9,8,2.6,11.8-0.5c0.6-0.4,1.3-0.2,1.8,0.3c0.4,1-4.7,0.9-0.4,2.8c8,3.4,16.6,3.6,25,5
	c14,2.3,28.1,4.1,42.1,6.5l-6.6,0.3c-17.3-1.7-34.5-3.7-51.5-7.1C375.8,534,368,532.6,361.2,528.2z"/>
<path class="st15" d="M579.8,494.3c4.6,0,9.3-0.1,13.9,0c1.5,0,3.2,0.4,3,2.4c-0.1,1.6-1.6,1.9-2.9,2c-9,0.4-18.1,0.8-27.1,1
	c-2.1,0.1-4.5-0.5-4.4-3.1c0.1-2.9,2.9-2.3,4.8-2.4C571.3,494.2,575.5,494.3,579.8,494.3L579.8,494.3z"/>
<path class="st16" d="M512.4,493.3c0,5.6-4,11.2-0.1,16.9c2.7,4.3,6.6,7.5,10.2,11c-0.5,1.1-1.5,2-2.6,2.4c-2.7,0.3-4.2-1.4-5.8-3.2
	c-0.7-0.9-1.4-1.7-2.3-2.5c-6.1-4.6-6.6-10.8-5-17.5c0.5-2,0.6-4,0.5-6.1c0-0.6,0-1.3,0.2-1.9c1.7-4.4,1-8.7-0.6-12.9
	c-1.2-3.1-1.7-6,0.9-8.7c1.5,0.7,3.7,0.5,4.5,2.5c-2.2-0.5-1.9,0.8-1.6,2.2C511.8,481.5,512,487.4,512.4,493.3z"/>
<path class="st17" d="M172.3,491c-3,4.3-6.9,6.6-12.3,5.7c-1.5-0.6-3.3,0.2-4.6-1.1c1.6-2.7,4.9-1.1,6.8-2.7c1.7-0.9,4-1.8,0.5-3.5
	c-2.5-1.2-5.5-0.5-8.1-1.8c-1.6-0.8-3.3-1.8-2.9,1.4c0.3,2,0.4,3.6-1.9,4.4l-2.2-0.1c-1-1-2.7-0.5-3.6-1.9c-0.5-0.8-0.6-1.7-0.9-2.5
	c-1.2-1.2-3.3-0.5-4.5-1.9c-0.3-0.4-0.4-0.9-0.3-1.4c9.2-2.9,19-2.6,28,0.9C168.8,487.4,171.2,488.4,172.3,491z"/>
<path class="st18" d="M118.5,484.2c-4.4,0-7.3,0.1-10.3,0c-1.1,0-2.3-0.5-2.3-1.9c-0.1-1.2,1.1-1.4,1.9-1.6
	c6.8-1.5,13.6-1.2,20.4-0.5c1,0,1.8,0.7,1.9,1.7c0,1.2-1.1,1.3-1.9,1.6C124.5,484.8,120.7,484.1,118.5,484.2z"/>
<path class="st19" d="M145.4,494.4c-3,2.7-6.8,0.4-10.7,1.9c2.4,1.5,6.2,2.6,3.1,5.7c-2.6,2.6-6.1,1.7-8.6-0.4s-2.3-5.1-0.8-7.6
	c1.3-2.1,3.9,1.1,5.5-0.8l0.8-0.5C138.3,493.1,142.2,491.5,145.4,494.4z"/>
<path class="st20" d="M288.6,258.3v13.9c3.2-7.7,1.1-15,3.2-21.6c1.1,1,0.8,2.2,0.3,3.4c-0.2,4.4-1,8.9-0.5,13.3
	c0.6,6.7-2.4,11.1-7.5,14.7l-1.2-0.9c4.4-6,5-13,4.8-20.1C287.8,260,288.1,259.1,288.6,258.3z"/>
<path class="st21" d="M560.5,484.3c-2.6,0-5.2,0-7.8,0c-1,0-1.9-0.5-1.8-1.6c0.1-1.1,1-1.5,1.9-1.6c5.2-0.1,10.3-0.1,15.5,0
	c1,0,1.9,0.5,1.8,1.6c-0.1,1-1,1.7-1.9,1.6c0,0,0,0,0,0C565.6,484.4,563,484.4,560.5,484.3L560.5,484.3z"/>
<path class="st22" d="M163.4,494.4c-2.4,2.1-5.4,0.5-8,1.2c-2.3,0.5-3.8-1.3-5.5-2.2c2.2-2.1-0.7-4.1-0.2-6.2c0.2-1.2-0.5-3,1.6-2.7
	c1.1,0.1,3.9-1.6,3,2C155.4,491.2,161.3,490.7,163.4,494.4z"/>
<path class="st23" d="M138.4,485.6c0.2,0.3,0.4,0.6,0.5,1c2.2,2.1,5.4,0.1,7.7,1.9l-2,2.6c-2.7,4.9-6.6,2-10.2,1.7l-0.5,0.4
	C131.4,488.3,133.9,486.4,138.4,485.6z"/>
<path class="st24" d="M506.6,264.3c1.2,2.9,2.4,5.7,3.7,8.5c-0.7,1.7,0.1,5.2-3.8,3.2c-1.7-4.6-3.8-9.1-6.3-13.3
	c-1-1.7-2.4-3.4-1.1-5.5c0.4-0.5,0.9-0.9,1.3-1.4C502.4,258.7,504.5,261.5,506.6,264.3z"/>
<path class="st25" d="M155,461.3c-5.2,3.7-9.5,2.7-13.7,2.9c-0.9,0-2-0.2-2.2-1.3c-0.3-1.4,0.8-1.8,1.9-2.2
	C145.3,459.1,149.3,461,155,461.3z"/>
<path class="st26" d="M523.7,542.6c-0.5-0.7-1.4-2.1-1.4-2.1c4.9-3.4,2.8-9.3,4.7-13.7C530.7,533.6,529.9,537.5,523.7,542.6z"/>
<path class="st22" d="M134.4,492.9c3.3-0.8,7.3,1.7,10.2-1.7c1.6-0.1,2.9,0.2,3.1,2.2l-2.2,1.1C141.7,494.5,137.7,496.1,134.4,492.9
	z"/>
<path class="st27" d="M509.1,493.5c0.2,0.3,0.2,0.6,0,0.9c-0.9,2.6-1,5.4-1.7,8c-2.6,9-1.9,10.7,6,16c0.8,0.5,1.5,1.1,2.2,1.7
	l4.2,3.5c6.3,9.7,4.3,15.3-6.8,18.6c-9.5,2.8-19.2,2.8-28.8,1.4c-36.5-5.2-73.2-8.8-109.4-15.8l-1.8-0.3c-5.9-2.7-12.5-3.8-17.2-8.9
	c-0.9-2.4-2-4.8-2.6-7.3c-1.5-5.5,1-8.6,6.5-9.6c8.3-1.5,16.7-0.4,25-0.9c4.1-0.3,8.7,0.8,10.9-4.5c0.7-1.6,3-1.1,4.7-1
	c6.9,0.3,13.7,1.1,20.6,1c26-0.3,51.9-1.3,77.5-6.5c1.3-0.2,2.6-0.2,3.9-0.2C505.2,489.8,509.7,486.9,509.1,493.5z"/>
<path class="st28" d="M481,416.1c-2.3,5.5-1.6,11.4-0.8,16.9c0.9,5.9-0.1,10.9-2.1,16.1c-0.9,2.2-2.8,4.7-0.4,7.2
	c1.6,6.1-3.5,15-10.2,17.8c-14.9,13.7-33.2,14.2-51.9,13.2c-3.5-0.2-5.7-3.4-8.2-5.4c-1.1-1.5-2.8-1.8-4.5-1.5
	c-16.3,2-32.6,3.9-48.9,6.5c-17.5,2.9-35.1,6-53,5.2c-11.6-1.4-23.2-3.5-34.7-5.5c-3.6-0.6-7.4-0.2-11-1c-1.3,0.1-2.6,0-3.9-0.5
	c-3.4-2.8-4.5-6.3-2.8-10.5c0.4-0.5,0.9-0.8,1.5-0.9c3.8,4,9.1,6.2,14.6,6.2c10.2,1.7,20.3,3.4,30.5,5c4.1,0.8,8.2,1.6,12.4,0.4
	c3.6-0.1,7.2,0.2,10.8,0.3c18.5-1.4,36.6-5.7,54.9-8.5c5.7-0.9,11.5-0.8,17-2.5c3.4-0.7,7-0.3,10.4-1.3c2.5-0.7,3.1-2.3,2.9-4.5
	c-0.2-2.8-2.2-2.5-4.1-2.4c-2,0.2-4,0.8-6.1,0.5c-3.7-1.8-7.4-2.6-11.5-1.2c-5.9-0.3-11.4,1.8-17.1,2.3c-2-0.1-4.2,0.4-5.8-1.4
	c2.2-5.1-0.2-9.1-3.4-12.8c-0.3-1.1-0.1-2.2,0.5-3.1c4.8-1.6,8.8-4.3,11.4-8.8c-1.2-1-2.4,0.3-3.6,0.1c-6.8,0-9.9-4.5-12.2-10
	c-1.6-2.5-1-5.4-1.2-8.1c0.1-1.6,0.7-3.1,1.7-4.2c1.2-1.1,2.3-2.4,3.2-3.7c3.8-5.4,8.8-8.1,15.5-7.2c2.5,0.5,4.9,1.8,6.5,3.8
	c0.7,0.8,1.4,1.6,2,2.5c1.1,1.4,2.1,3.5,4.2,2.2c2.2-1.3,0.7-3.1,0.1-4.8c-1-1.7-1.3-3.8-0.8-5.8c1.1-2.7,3.8-3.8,4.7-1
	c3.1,9.6,10,7.2,16.6,6.2c0.7-0.1,1.5-0.1,2.2,0c5.4-1.8,11.3-1.8,16.4-4.6c1.8-1,3.5-1,5,0.7c1.4,1.8,2.1,4.1,1.8,6.3
	c-2.1,8.7-2.9,8.8-11.5,9.7c-11.6,1.2-23.4,0.1-34.8,3c-3.3,1.7-3.5,3.7-0.4,5.7c1.6,1.2,3.4,2.3,5.2,3.2c8.2,3.4,16.1,2.1,23.9-1.3
	c3.6-2.2,6.9-5,9.7-8.2c1.9-2.3,4.5-3.1,7-4.2c12.9-4,24-11.1,34.2-19.9c2.5-2.9,5.3-5.6,8-8.4c1.7-1.7,3.6-3.5,6.1-1.1
	c1.5,6.2,3.4,12.3,4.3,18.6C482.1,413.3,482.6,414.9,481,416.1z"/>
<path class="st29" d="M467.5,474.2c4-5.6,8.9-10.6,10.2-17.8l3.7-9.4c2.9,1.6,3.9,4.8,5.9,7.1c5.8,6.7,12.7,12.4,20.3,16.9
	c-0.4,7.5,3.6,14.8,1.4,22.5c-0.6-4.3-4.1-3.4-6.9-3.6c3.2-1.1,5.5-2.8,4.5-6.8s-4.1-2.9-6.7-3.2c-9.6-1.1-19.2-2.3-28.7-3.5
	C469.8,476.2,468.4,475.4,467.5,474.2z"/>
<path class="st30" d="M301,491.1c23.5,1.7,45.9-4.9,68.8-8.1c10.6-1.5,21.3-2.6,32-3.9c2.5-0.3,5-0.3,5.7,2.9
	c-16.8,1.3-33.5,3.2-50.1,5.9c-13.9,2.3-27.9,3.8-41.9,4.5c-4.7,0.6-9.3,0.2-14,0.2c-0.5-0.2-0.8-0.7-0.7-1.3
	C300.8,491.3,300.9,491.2,301,491.1z"/>
<path class="st31" d="M301,491.1c0,0.4,0,0.7,0,1.1c-3.7,0.9-7.5,0.9-11.2,0h-4.5c-10.2-3-20.4-5.6-31.2-4.4c-1.5-1.7-0.2-2.6,1-3.5
	C270.4,486.2,285.8,487.8,301,491.1z"/>
<path class="st6" d="M289.8,492.2h11.2l14.5,0.2C306.9,493.7,298.3,494.1,289.8,492.2z"/>
<path class="st32" d="M409.1,200.4c0.8,0.4,1.7,0.7,2.6,0.9c16.3,2.2,28.9,11.8,41.3,21.5c0.8,0.9,0.7,2-0.4,2.1
	c-2.2,0.2-2.2,0.7-1.1,2.5c1.6,2.8,0.5,4.2-2.7,4c-6.5-4.6-12.7-9.6-19.7-13.5c-8.8-4.8-18.4-7.9-28.3-9.2
	c-21.4-3.1-40.6,3.2-58.9,13.5c-2.6,1.5-5.2,2.8-8,3.8c-5.7-1.6-2.4-4.2-0.4-6.1c7.2-6.5,14.8-12.4,24.1-15.6
	c15.3-6.3,32-8.3,48.4-5.8C407.3,198.8,408.4,199.1,409.1,200.4z"/>
<path class="st33" d="M449.7,230.5c2.8-2.4-0.7-2.9-1.3-4.2c-0.7-1.3-3-2-2-3.5c1.3-2,2.9-0.2,4.3,0.4c0.9,0.4,1.9,1.7,2.4-0.4
	c9.1,5.8,15.2,14.5,22.3,22.2c4.9,6.7,8.3,14.1,11.2,21.7c0.8,1.7,1.2,3.5,1.2,5.4c-0.2,2.5-2.1,4.6-4.7,4.8
	c-2.5,0.4-3.9-1.2-4.5-3.3c-1.6-5.1-4-10-5.6-15.2c-2.3-7.5-6.3-14.5-11.5-20.3c3.9,3,6.1,8.7,9.2,13.8c1,1.6,2.7,4.1-0.4,5.7
	c-2.9-0.3-3.8-2.9-4.9-4.9c-3.5-6.4-7.9-12.2-13.2-17.2C450.7,234.3,448.7,233,449.7,230.5z"/>
<path class="st34" d="M470,257.3c0.3-7.4-4.7-12.4-8.5-17.9c-1.3-1.8-3.7-2.9-4.8-5c8.4,4.8,13.2,12.6,17.1,20.9
	c2.4,5,4.4,10.2,5.9,15.6c0.5,1.8-0.1,5.7,3.9,4.3c3.7-1.3,2.9-4.3,1.7-6.9c-3.3-7-5-14.7-9.5-21.1c-0.4-0.5-0.2-1.4-0.3-2.2
	c6.4,5.4,9.1,13.3,13.4,20.2c2.6,1.1,3.2,3.6,3.9,6c0.1,2.6,1.2,5,1.2,7.7c0.1,8.1-6.3,12.5-14.3,9.7c-0.5-0.4-0.8-0.9-1.1-1.5
	c-1.7-8.4-5-16.3-8.4-24.1C469.4,261.1,468,259.2,470,257.3z"/>
<path class="st35" d="M409.1,200.4c-17.8-2.4-35.3-1.3-52.2,5.4c-1.5,0.5-3.1,1.5-3.5-1.2c13.6-7.2,28.4-9,43.3-8.3
	c19.3,0.8,38,4.4,55.2,13.9c-4.6,2.1-8.1-1-11.8-2.6C430.3,203.4,419.8,201.3,409.1,200.4z"/>
<path class="st36" d="M491,270.7c-1.2-1.6-1.9-3.5-2.2-5.4c0.2-1.3-0.3-3.3,2.3-2.3c4,3.6,7.9,7.3,13.3,9c1.4,0.4,2.2,1.9,2.3,3.5
	c3.4,2.3,1.7-2.6,3.5-2.4c4,7.1,9.8,13,13.2,20.5c6.6,14.6,7.9,29.2,2.4,44.4c-0.6,0.7-0.5,2-1.5,2.2c-1,0.2-1.6-0.8-1.8-1.7
	c-0.4-1.5-0.3-3,0.2-4.4c2.8-9.7,2.7-20-0.3-29.6c-1.8-4.1-3.2-8.3-5.2-12.3c-3.8-7.9-9.8-13-18.3-15c-1.6-0.4-3.1-1.2-4.8-1.6
	C492,274.6,492.1,272.2,491,270.7z"/>
<path class="st37" d="M506.7,275.3c-1.6-0.9-3.1-2.4-4.8-2.6c-6.1-0.8-9.5-4.1-10.8-9.9c-0.3-2.4-2.9-4.9,1-7.1
	c3.1-1.8,5.1-1.1,6.9,1.5c2.8,4.6,5.8,9.2,7.8,14.3C507.2,272.8,508.8,274.1,506.7,275.3z"/>
<path class="st38" d="M510.4,181.4c3.1,0.1,6.3-0.2,9.5,1.9c-2.3,2-5,1.1-7.3,1.3c-6,0.6-10.3,3-11.6,9.3c-0.2,1.1,0.2,3.1-1.8,2.7
	s-1.4-2.3-1-3.7c0.5-1.6,1.3-3.1,1.9-4.6C501.9,183.3,505.4,181.2,510.4,181.4z"/>
<path class="st39" d="M510.4,181.4c-4,1.2-7.6,3.5-10.1,6.8l-1.2-1.3c1.7-3.6,5.1-6,9-6.6L510.4,181.4z"/>
<path class="st40" d="M353.7,431.5c2.4,4.7,4.2,10,11.2,8.7c0,5.4-4.2,7.7-7.6,10.7c-0.1,1.1-0.2,2.2-0.2,3.3
	c0.5,1.2,0.9,2.3,0.1,3.5c-2.3,2.1-4.7,0.4-7,0.2c-4.4-1.3-9.1-0.8-13.3-2.9c-1.8,0.1-3.4,0.8-5.2,1.1c-7.4,0.6-13.9-2.8-20.6-5.1
	c1.1-2.1,3.4-1,5.2-2c-0.6-0.2-1.1-0.6-1.4-0.5c-7.9,2.8-8.4-3-9.8-8.2c-6.5-23.6-11.7-47.4-17.2-71.2c-0.9-4-2.2-8.3-0.3-12.6
	l9.9,14.8c7.4,8.5,17,14.9,27.7,18.4c5.9,2,11.4,5.3,17.8,6.1c2.6,0.3,2.9,2.6,0.7,4.5c-9.4,8-9.8,17.3-1.1,26
	c1.2,1.2,2.8,2.5,4.4,2.2C349.9,428.2,351.6,430.3,353.7,431.5z"/>
<path class="st41" d="M336.7,452.9l13.7,3.3c-1.9,1.7-4.3,0.1-6.4,0.9c-1.4,0.9-2.3,2.4-2.7,4c0.3-1.5,1.1-2.8,2.3-3.7
	c3.7-1.6,6.1,0.1,7.9,3.1c1.1,2.6,3.8,4.2,6.7,3.9c0.5,0.2,0.9,0.6,1.1,1.1c1.7,1.5,3.9,0.7,5.8,1.1c-3.6,4.9-9.4,3.7-14.2,4.5
	c-7.9,1.4-15.9,1.9-23.9,1.4c-8.6-1.1-17.2-1.9-25.8-3.3c-3-0.6-6.1-0.8-9-2.1c-1.5-2.5,0.8-2.9,2-3.9c3.7-1,6.9-2.5,7.1-7.1
	c-5.1-18.2-9.6-36.6-14.3-54.9c-0.9-3.6-2.1-7.2-1.1-11c1-1.6,0.9-3.8,2.9-4.7c5.5,22.4,11.1,44.8,16.6,67.1
	c0.3,1.2-0.1,2.7,1.6,3.4l4.1-5c5-1.1,9.4,1.1,14,2.4c2.3,0.5,4.7,0.7,7.1,0.8c5.7-0.1,5.6,3.3,3.7,8.6
	C337.8,458.7,336.3,455.8,336.7,452.9z"/>
<path class="st42" d="M288.8,385.5c-0.4,1.8,0.1,3.8-1.8,5c-3.2-1.2-3.2-4.4-3.8-7c-2.4-9.8-4.4-19.6-6.5-29.4
	c-0.6-3.3-1.9-6.4-3.8-9.2c-2.4-2.4-5.5-2.1-8.4-2.1c-30.8-0.1-61.7-0.1-92.5,0c-2.8-0.1-5.6,0.3-8.2,1.2c-0.6,0.3-1.3,0.4-1.9,0.3
	c-2.2-0.6-2.6-1.7-0.9-3.4c3.6-1.9,7.5-2,11.4-2c30.5-0.3,61.1-0.6,91.6-0.9c2.1,0,4.1,0.2,6.1,0.2c5.4,0.1,8.7,2.8,9.9,8
	L288.8,385.5z"/>
<path class="st43" d="M161,341c-0.2,0.9-0.8,1.9,0.4,2.6c1,1.1,1.7,2.4,1.9,3.9c4.1,22.5,10.2,44.5,15.7,66.6
	c0.7,2.9,0.5,5.9,1.6,8.7c2.1,6.8,3.7,13.8,6.1,20.5c0.8,2.2,1.5,4.1,3.9,4.9c4.2,2.5,9.1,3.3,13.7,5c0.5,0.3,0.7,0.9,0.6,1.5
	c-1.3,1.2-3.5,0.1-4.7,1.7c-9.1-1-16.1-5-18.7-14.2c-8.7-31-16.6-62.1-23-93.7C158,345.8,157,342.5,161,341z"/>
<path class="st44" d="M470,257.3c4.2,9.4,9.1,18.5,9.8,29.1c-3.2,0.8-6.7,0.2-9.6,2.2c-1.7,0.1-3.5,0.2-4-1.9
	c-0.5-2.1,0.6-3.5,1.9-5c0.8-1,3.4-1.3,2.1-3.1c-1.4-1.8-3.6-1.3-5.4,0.2c-1.4,1.2-2.3,3-4.1,3.5c-1.1,0.4-2.3-0.2-2.7-1.3
	c-0.5-4.8,2.9-7.3,5.7-10c-0.8,0.4-1.7,0.5-2.6,0.3c-3.3-3.3-0.1-5.4,1.9-6.3c5.2-2.4,3.8-5.3,1.5-8.7c-6.4-9.7-12.9-19.4-22.4-26.4
	c-0.9-0.7-1.9-1.2-3-1.4c-3.8-2.1-6.9-5.2-10.8-7.3c-12.4-6.9-26.1-8.9-40-10.4c-2.2-0.2-4.5,0.1-6.5,1c-9.2,0.1-17.6,3.4-26.1,6.5
	c-4.9,1-8.9,4.2-13.5,5.9c-8,4.6-16,9.2-23.9,14.2c-1.2,0.8-3,2.6-3.9-0.5c1.8-2.9,4.2-5.5,6.9-7.6c3.1-3.5,7.6-5.5,12.2-5.5
	c31.3-20.2,67.9-27.1,101.5-5.6c5.2,3.3,9.9,7.4,14.8,11.1C457.8,238.2,464.7,247.3,470,257.3z"/>
<path class="st45" d="M294.2,279.7c0.7-1.9,1.5-3.8,2.2-5.7c-1.1-1.2-0.5-2.5-0.2-3.8c2.1-6.1,4.2-12.1,8-17.4
	c3.9,0.8,1.1,3.6,1.7,5.4c-0.2,3.5-2.1,6.6-1.6,10.2c0,2.8-2.5,4.5-3,7c-0.2,1.1-0.3,2.3-0.3,3.5c4.2-5.7,8-11.7,14.9-14.4
	c14.1-5.9,27.7-0.4,33.4,10.4c0.4,0.6,0.6,1.4,0.6,2.1c-0.1,0.9-0.7,1.7-1.5,2c-2.4,0.4-3.7-1.3-5.2-2.7c-12.4-12.1-30.3-8.8-37.6,7
	c-1.7,3.6-2.2,8-6.3,10.1c-2.1-0.3-3.1-2.1-4.6-3.4c-1.3-2.1-0.5-4.3,0-6.4C294.9,282.3,295.7,280.9,294.2,279.7z"/>
<path class="st46" d="M314.2,238.1c0.5,0.1,1.2,0.5,1.4,0.3c7.7-6.8,17.4-10.1,25.8-15.6c0.7,0.5,2.1,0,2.3,1.5
	c-0.7,3.7-5.9,3.1-6.5,6.9c-2.8,3.6-7.2,4.4-10.9,6.3c-2.9,1.5-5.5,3.1-6.5,6.4c-2.4,2.8-4.1,6.7-8.9,5.8c-1.8-3.3,1.3-6,1.2-9.2
	L314.2,238.1z"/>
<path class="st47" d="M333.4,225c-3.5,3.2-8.5,2.9-12.2,5.5c9.6-10.1,19-20.4,32.3-25.8c0.8,1.4,2.3,0.9,3.5,1.2
	c-8.5,4.2-16.6,8.9-23.3,15.6C332.9,222.2,329.1,223.6,333.4,225z"/>
<path class="st48" d="M293,221.5c1.2,0.8,1.9,2.4,3.7,2.4c-0.5,9-1,18.1-1.5,27.1c-0.1,2.2-0.5,4.4-0.8,6.6
	c-1.3-6,1.2-12.2-1.3-18.1C292.2,233.5,292.2,227.5,293,221.5z"/>
<path class="st49" d="M312.1,240.6c4.4,3.6-0.8,5.9-1.2,8.8c-0.4,6.8-2.2,9.2-6.6,9c-0.6-1.9,1.9-3.8,0-5.6
	C306,248.2,309,244.3,312.1,240.6z"/>
<path class="st48" d="M296.2,270.2l0.2,3.8c-1.9,0.1-3.4-0.4-3.3-2.6c0.1-3.6-0.8-7.3,1.1-10.7c0.7,3-0.2,5.8-0.3,8.7
	C293.8,271.6,294.7,272.3,296.2,270.2z"/>
<path class="st50" d="M353.7,431.5c-0.1,0.4-0.4,1-0.4,1c-6.8-2.1-13.6-4-16.9-11.6c-2.7-6.1-1.5-11.5,0.9-17.1
	c1.3-3,3.7-4.3,8.1-5.5c-10.9-2.4-21.4-6.3-31.3-11.6c-6-3.1-11.3-7.1-15.9-12c-0.9-1-2-1.9-0.6-3.3l2,1.3c2,0.2,3.3,1.4,4.8,2.5
	c9,6.7,19,11.7,29.6,15c6.2,2.2,12.6,3.6,18.7,6.1c1.9,2.1,1.5,3.7-1.2,4.5c-1.9,0.5-3.8,1.2-5.6,2.1c-7,5.8-8.2,15.7-2.5,22.1
	c1.4,1.5,3.4,2.4,5.3,0.6c1.1-1,2-2.3,3.7-1.6C352.6,426.5,351.8,429.2,353.7,431.5z"/>
<path class="st51" d="M285.8,343c-10.7-16.3-13.2-33.1-2.9-50.6C283.7,309.3,280.8,326.4,285.8,343z"/>
<path class="st52" d="M300.9,370.6c-6.7-9.4-7.9-20.3-8.7-31.4c1.1-0.8,2.1-0.2,3,0.5c2.6,3.5,4.6,7.3,5.9,11.4
	c-0.4,4.9,2.3,9,3.6,13.4c0.1,4.1,3.6,7.2,3.1,11.5C303,377.3,302.3,373.5,300.9,370.6z"/>
<path class="st53" d="M294.2,340l-2-0.8c-1.6-10.9-1.5-21.8-1.3-32.7c0.2-9.1,0.8-18.1,3.4-26.9c3.3-0.8,2.3,1.7,2,3
	c-0.6,2.3-0.9,4.7-0.9,7.1c2.7,2.8,1.2,5.8,0.6,8.9c-2,11.4-1.7,22.8-0.2,34.2C296.1,335.5,296.5,338,294.2,340z"/>
<path class="st54" d="M300.9,370.6c2.5,1.6,3.9,4.4,6.7,5.5c0.6-0.1,1.2-0.3,1.6,0c8.3,5.1,17.5,8.4,26.4,12.5
	c0.3,0.5,0.4,1,0.4,1.6c-0.5,1.3-1.6,1.4-2.7,1.5c-12.8-3.6-24.3-9.5-33.9-18.9L300.9,370.6z"/>
<path class="st55" d="M286.2,299.6c-0.1-6.9-0.7-13.8,4.9-19.5l-2.3,17.5c-1.8,2.7,0.4,6.1-1.8,9.5
	C285.3,304.3,285.8,302,286.2,299.6z"/>
<path class="st56" d="M286.2,299.6l0.6,5.7c1.5-2.6-0.2-5.6,1.9-7.7c-0.4,10-1.5,19.9-1.4,30C285.6,318.4,285.2,308.9,286.2,299.6z"
	/>
<path class="st20" d="M293,221.5l0.1,17.9l-0.1,3.1c0,0.3-0.3,0.6-0.6,0.6c-0.1,0-0.1,0-0.2,0l-0.1-21.8
	C292.4,221.4,292.7,221.5,293,221.5z"/>
<path class="st48" d="M292.2,243.1c0.2-0.2,0.5-0.4,0.8-0.6c0.3,3.9,0.9,7.7-0.8,11.4l-0.3-3.4L292.2,243.1z"/>
<path class="st57" d="M479.3,546.1h9.9v0.4h-9.7L479.3,546.1z"/>
<path class="st58" d="M255.1,484.3c-0.3,1.1-0.7,2.3-1,3.5l-2.5,0.9c1.4-3.3-1.2-2.1-2.4-2.1c-12.6,0.8-25.3-0.4-37.5-3.7
	c0.4-1.7,2.4-0.6,3-1.7c1.3-1.8,3.1-1.7,5-1.5c7.8,0.8,15.6,1.3,23.3,2c3.5-1,6,1.4,8.8,2.6L255.1,484.3z"/>
<path class="st59" d="M204.5,481.3l5.8,4.2c-3.1,0.7-6.3,0.4-9.2-0.6C201,482.4,204.7,483.6,204.5,481.3z"/>
<path class="st60" d="M523.7,303.1c4.9,10.9,3.9,21.9,0.8,33c-0.2,0.6-2.8,4.3,1.4,1.7c0,3.1-1.8,5.4-3.5,7.8
	c-0.8,1.3-0.6,2.9-1.2,4.2c-0.6,1.2-1.5,2.2-2.5,3c-3.2,2.4-6.2,5.3-10.7,5.1c-1.4-0.2-2.6-1-3.4-2.1c-0.2-2.8,2.2-3.1,3.9-3.8
	c4.2-1.8,7.7-4.9,10-8.9c-2,0.2-3.9,0.9-5.6-0.3c-1.6-1.9,0.3-3.9-0.1-5.9c0.5-1.6,1.3-3.1,2.5-4.2c5.7-6.5,6.5-13.8,3.3-21.6
	c-1.4-3.7-3.8-7-4.5-11c0.2-0.8,0.7-1.5,1.4-1.8C519.7,297.4,520.6,302,523.7,303.1z"/>
<path class="st61" d="M556,408.3c-1.7,1.7-0.7,4-1.3,5.9c-2.8-0.3-2.8-2.9-3.2-4.6c-3-14-9.8-26.3-17-38.5c-1.3-2.3-3.7-4.4-2.8-7.6
	c0.4-0.8,1-1.5,2.1-1.1c9.2,12.5,16.4,26.4,21.4,41.1C555.6,405,555.9,406.7,556,408.3z"/>
<path class="st62" d="M533.7,362.3l-1.5,1.6c-0.4,0.1-0.8,0.2-1.1,0c-4.6-4.3-9-8.6-11-14.9c0.7-1.1,1.4-2.3,2.1-3.4
	c-0.3,3.5,2.9,5,4.6,7.2C529.2,356,532.2,358.7,533.7,362.3z"/>
<path class="st63" d="M520.2,349l12,14.9c9.8,15.7,18.4,32,22.5,50.2c1,9.6,1.6,19.2-0.1,28.8c-1.5,8.6-4.5,16.5-10.5,23
	c-2.8,3-6,5.6-10.3,6.1c-3.4,1.1-6.8,0.2-10.3,0.5c-0.3-2.7,2.8-4.4,0.7-6.8c-3.9-0.2-3.3,7.6-8.6,5.1c-8-2.4-14-7.9-20.1-13.3
	c-0.3-5.2,0.3-10.4,0.3-15.5c0.1-3.6-1.3-7-3.9-9.4c-2.4-2.3-4.9-4.6-6-8c-0.4-1.5-0.6-3.1,0.9-4c1.3-0.8,2.5,0.3,3.5,1.1
	c1.3,1,2.4,2.3,3.8,3.3s2.8,2.3,4.5,1.4s1.5-2.8,1.3-4.5c-0.4-2.4-1-4.8-1.2-7.1c-0.2-2.2-0.6-5,2-5.8c2.9-0.8,3.6,2.1,4.3,4.1
	c1.3,4.1,3.2,7.9,5.7,11.4c0.9,1.1,1.9,2.6,3.6,2.1s1.5-2.4,1.6-3.8c0.4-5.8-0.1-11.5-1.6-17.1c-1-3.7-1.5-7.3,2.3-10.1
	c2.1-1.5,1.2-4.1,1.7-6.2c0.7-1.7,0-4.6,2.8-4.8c2.1-0.1,2.9,2,3.7,3.7c2.3,5,7.1,7.4,11.2,10.6c6.5,5.2,13.2,10.2,15.3,18.9
	c-4.2-15.7-10.9-30.4-18.7-44.6c-1.6-3.3-4.5-5.7-5.8-9.2c-1.7-3.7-5-6.3-7.2-9.6c-0.7-1-2-1.7-1.5-3.2L520.2,349z"/>
<path class="st64" d="M520.2,389.3c-0.2,3.6,1.6,8-4.2,9.4c-1.8,0.4-0.5,2.7-0.2,4c1.6,7.1,2.7,14.2,2.2,21.5
	c-0.1,2.2,0.4,4.4-2.5,5.5c-3.1,1.2-4.5-1-6-2.7c-4.1-4.9-6-10.9-8.1-17.5c-1.7,2.3-1,4-0.7,5.8c0.6,2.7,1.1,5.5,1.4,8.2
	c0.3,2.3-0.1,4.7-2,6.1c-2.3,1.7-4.4-0.3-6-1.5c-2.5-1.8-4.6-4.2-7.4-6.7c0.5,5.2,4.3,7.7,7.3,10.5c3,2.8,4.3,5.5,3.7,9.3
	c-0.9,5.5,2.2,11.6-2.3,16.6c-7.7-5.9-11-14.1-12.2-23.4c-0.8-6-0.5-12.2-2.1-18.2l-4.7-23.8c-3.1-3.6-2.2-7.2-0.1-10.8
	c3.1-1.5,3.9,0.9,4.6,3c1.2,3.3,1.5,6.9,0.9,10.4c0.5,3.5,1.1,6.9,2.1,10.3c0.5,2.5,0.7,5,0.7,7.5c0.4-7.8,4-9.2,12-4.6
	c-0.4-4.2-1.8-7.9-2.1-11.6c-0.1-1.5-0.1-3.3,1.5-3.9s2.6,0.9,3.5,2c1.4,1.7,0.9,5.4,4.3,5c3.5-0.4,5.3-3.1,6.5-6.3
	c0.1-0.4,0.2-0.7,0.3-1.1c0.9-2.5-0.6-4.7-1-7c-0.9-4.8,0.6-6.1,5.7-5.2C517.7,382.7,518.2,386.3,520.2,389.3z"/>
<path class="st65" d="M515.6,471c3.8-1.1,3.9-5.5,6.7-7.6c0.8-0.6,1.1-2.1,2.5-1.9c1.3,0.3,2.2,1.6,1.9,2.9c0,0,0,0,0,0
	c-0.8,2.3,4.5,5.9-1.4,7.6h8.6C527.5,474.3,521.5,473.8,515.6,471z"/>
<path class="st66" d="M288.6,192.2c-2,1.9-4.8,2.3-7.3,3.1c-1.4,0.5-1.9-1-1.5-2.2c0.8-2.6,2.9-3.8,5.5-3.7
	C286.9,189.3,288.4,190.5,288.6,192.2C288.6,192.2,288.6,192.2,288.6,192.2z"/>
<path class="st67" d="M204.7,463.1c0.7-1.9-0.4-4.1,1.1-5.8c1-8.1,3.4-16,7-23.3c1.7-3.6,4-5.3,8.2-5.2c7.4,0.2,14.8,1.6,22.2,1.4
	c2.5-0.1,5.2,0.8,6.6,3.5c-1.5,12.6-3.2,25.2-6.4,37.6c-1.8,2.1-4.3,1.9-6.7,1.8c-9.3-0.3-18.4-1.9-27.6-2.9
	C204.4,469.8,203.1,467.4,204.7,463.1z"/>
<path class="st68" d="M204.7,463.1c-0.3,3.2,0.6,4.5,4.4,4.8c11.2,1,22.2,3.6,33.6,3c3.2,3.9,3.6,8,1.1,12.3
	c-8.8,1.1-17.3-0.7-26-1.8c-1.1-0.1-2.2-0.2-3.2-0.3C203.6,479.4,200.9,474.5,204.7,463.1z"/>
<path class="st69" d="M183.5,461.3c5,0.4,10,0.8,15,1.1c2.4,0.1,3.1,1,2.8,3.5c-0.9,9.4-0.8,9.4-10.3,8.1
	c-6.1-0.9-12.1-1.8-18.2-2.6c-1.9-0.3-3.8-0.6-4.9-2.3c-1.3-2-3.5-4.3-2.8-6.4s3.9-1.5,6.1-1.5c4.1-0.1,8.2,0,12.3,0L183.5,461.3z"
	/>
<path class="st43" d="M249.5,434c-5.6-3.2-11.9-2.3-17.9-2.5c-18.3-0.8-14.4-3.8-21.3,14c-1.5,3.9-1.7,8.4-4.4,11.9
	c-0.3-0.9-0.6-1.8-0.9-2.7c-0.1-0.2-0.2-0.4-0.3-0.6c-0.5-0.6-1.1-1.2-1-1.9c2-9.5,3.9-19.1,11.5-26.2c10.7-0.1,21.4,0.7,32.1,1.5
	c1.7,0.2,3.2,1,4.3,2.4c1.1,1.8,0.3,2.9-1.2,3.9L249.5,434z"/>
<path class="st70" d="M515.6,520.2c-3-0.7-5.8-2.2-8.1-4.2c-4.6-3.8-5.1-7.8-1.9-12.5c2-2.8,1.2-6.5,3.5-9.1c0.1,0.7,0.1,1.4,0,2.2
	C506.3,505.8,508.2,513.8,515.6,520.2z"/>
<path class="st71" d="M163.4,494.4c-1.9-0.5-3.8-1-5.8-1.4c-4.3-0.7-5.7-2.7-3.3-6.7c3.3-0.4,6.6-0.1,9.7,1.1
	c1.8,0.7,3.9,0.9,3.8,3.2C167.7,493.2,166.1,494.7,163.4,494.4z"/>
<path class="st27" d="M146.5,488.5c-2.6-0.4-5.8,1.8-7.7-1.9C141.3,487.5,144.7,484.7,146.5,488.5z"/>
<path class="st72" d="M467.5,439.4c3.7,7.5,3.3,11-2.3,16.4c-10,9.9-23.3,15.6-37.4,16.2c-4.3,0.2-6.9-0.9-8.2-5.4
	c-1.2-4.2-4.1-7.4-9.2-7.1c2.6-5,7.8-3.5,11.8-4c4.8-0.4,9.5-1.5,14-3.1c9.2-2.9,18.3-6,26.2-12
	C463.8,439.4,465.5,438.5,467.5,439.4z"/>
<path class="st73" d="M467.5,439.4c-9.2,6.5-18.8,12.3-30.1,14.7c-2.3,0.7-4.6,1.2-7,1.5c-6.2,1.3-7.4,0.6-8.8-4.3
	c-1.9-6.2-0.6-9.4,4.6-11.8c12.3-2.4,23.6-7.6,34.5-13.6c2.8-2.2,5.7-2.5,8.4-0.1c2.3,2.1,5,4.1,2.9,7.9L467.5,439.4z"/>
<path class="st74" d="M476.6,382c-0.1,3.4-0.1,6.9-0.2,10.3c-5,2.8-7,8.7-12.1,11.5c-4.5,1.2-9.2,1.4-13.8,0.5
	c-1.4-0.4-2.9-0.4-4.4-0.2c-6.9,1.8-13.6,0.1-20.2-1.7c-3.4-1.9-6.4-3.9-3.4-8.4c10.7-3.5,21.5-6.9,31.4-12.4
	c1.6-0.9,3.2-0.4,4.9,0.1c5,1.2,10.3,1,15.2-0.6c0.5-0.2,1.1-0.3,1.6-0.2C476.3,380.9,476.7,381.4,476.6,382z"/>
<path class="st75" d="M391.5,476.5c-23.3,3.7-46.5,8.6-70,11.3c-0.9,0-1.8,0-2.8-0.1c-1.1-0.7-2.3-1.4-2.5-2.8
	c-0.3-2.9-1.4-5.1-4.4-6.4c-1.4-0.6-1.6-1.9-0.2-3c3.8-1.3,7.7-0.3,11.5-0.6c8.9,0.2,17.5-2.7,26.4-2.2c9.5,2.4,18.6-2.2,27.8-2.1
	C382.5,470.5,387.9,472.1,391.5,476.5z"/>
<path class="st76" d="M429.7,424c-4.3,0.8-6.4,4.6-9.2,7.3c-2,1.9-3.9,3.9-6.6,4.9c-8.4,1.3-16.7,3.1-25.1,0.6c-2-0.9-4-1.9-5.9-3.1
	c-3.6-2.5-3.6-3.9,0-6.3c-0.5-0.5-1.3-0.5-1.5-1.3c12.3-4.3,25.3-3.3,38-4.2c6-0.5,8.9-2.1,9.1-8c3-0.1,2.2,2.2,2.3,3.8
	C430.8,419.8,430,421.9,429.7,424z"/>
<path class="st77" d="M429.7,424c-2.6-0.6-1.4-2.3-1.3-3.9c0.2-2.1,2.1-4.1,0.1-6.2l-1.3-5.6c-0.8-2.1-3.1-3.9-1.2-6.5
	c0.6-2.3,2-1.4,3.4-0.9c5.5,2,10.9,1.4,16.7,1.1s12.3-0.4,18.2,1.9C454.5,413.5,443.2,420.6,429.7,424z"/>
<path class="st78" d="M426.2,439.7c-3.6,3.8-4.3,9.6-1.8,14.2c0.9,1.7,2.2,1.6,3.7,1.5c3.1-0.2,6.1-1.8,9.3-1.2
	c-6.9,3-14.4,3.1-21.7,4.4c-1.8,0.3-3.8-0.2-5.4,1.1l-13.5,2.2c5.2-6.5,10.1-13,15.1-19.3C414.9,438.9,421.3,440.2,426.2,439.7z"/>
<path class="st79" d="M391.5,476.5c-2.1-1.8-4.6-0.9-7-1.1c-1.6-0.1-3.4,0.4-3.4-2.4c0-2.1-1.5-1.5-2.8-1.3
	c-3.3,0.6-6.6,0.8-9.9,1.6c-6.2,1.6-12.3,2.5-18.6,0.8c0.6-3.3,3.7-2.9,5.8-3.3c10.3-2.2,20.8-3.5,31.1-5.9c2.5-0.6,4.6,1.7,7,0.5
	c1.1-0.1,2.2-0.2,3.2-0.4c8.5-2.4,9.2-1.8,8.9,6.9c-0.1,2.3-0.6,3.5-3,3.5C399.2,475.5,395.5,477,391.5,476.5z"/>
<path class="st80" d="M426,401.8c0.6,2.1,1.6,4.2,1.2,6.5c-6.3,3.1-13.1,4.5-20,5.5c-1.8-2.1-0.7-4.2,0.4-6.1
	c1.5-2.7,0.3-3.7-2.3-3.9c-3.9-0.3-7.7,0-11.6-0.7c-3.1-0.7-6.1-1.4-9.3-0.6c-1.9,0.5-4.1,0.3-4.3-2.1c-0.2-2,1.8-2.6,3.6-2.6
	c11.6-0.4,23.1-1.8,34.5-4.3c1.8-0.4,3.7-0.3,5,1.5C421.2,398.4,425.3,399.3,426,401.8z"/>
<path class="st81" d="M264.1,481.9c-1.1-0.2-2.2-0.2-3.2-0.3c-5.3,0.1-9.3-1.4-10-7.4c-3.4-5.7-1.8-8,5.5-8.2
	c2.9,0.7,5.9,1.1,8.9,1.1c6.4,1.8,13.1,1.8,19.6,3.2c1.6,0.4,3.4,0.3,4,2.4c-1.9,3.3-5,2.3-7.8,2.2c-1.6-0.1-3.6-0.8-4.2,1.4
	c-1.6,5.9-5.6,6.4-10.7,5.3C265.5,481.4,264.8,481.6,264.1,481.9z"/>
<path class="st82" d="M394.8,401.5c3.9,0,7.7,0.1,11.6,0.1c1.9,0,3.7,0.1,4.7,2.2s0.1,3.5-1.3,4.9c-1.6,1.3-2.6,3.2-2.5,5.3
	c-4.3,0.6-8.7,1.4-13,2c-6.2,0.8-5.5-4.7-6.9-8c-0.9-2.2-1.2-3.6-2.5-0.4c-2.5-0.5-2.9-2.2-2.4-4.3
	C386.2,401,390.4,400.8,394.8,401.5z"/>
<path class="st83" d="M352.4,423.9c-0.6,0.4-1.4,0.6-1.8,1.1c-2.4,3.9-5.3,4.4-8.3,1.2c-6.5-7-5.5-18.9,2-24.7c1.9-1,3.2,0,4.4,1.3
	c3.3,3.4,7.3,3.5,11.2,1.9c4.9-2,9.9-2.5,15-3.4c1.2,0.1,2.2,1,2.4,2.2c-2.3,5.3-8,3.5-11.8,5.6c-5.9,1.6-9.5,5.7-11.8,11
	L352.4,423.9z"/>
<path class="st84" d="M310.9,476.7c0.3,0.2,0.6,0.5,1,0.5c4.3,0.3,8.1,0.8,5.8,6.9c-0.3,0.9,0.7,2.4,1.1,3.6h-11.1
	c-3.9-0.9-8-0.2-11.8-1.7c-0.6-0.2-1.2-0.4-1.7-0.8c-2.7-5.4-1.9-8,3.6-11.4C302.3,474.2,307.5,471.6,310.9,476.7z"/>
<path class="st85" d="M243.9,483.2c-0.9-4-1.3-8.2-1.1-12.3c0.6-12.5,2.9-24.9,6.7-36.9c0-0.3,0.1-0.6,0.1-0.9
	c3.8,0.1,4.1,2.8,3.6,5.4c-0.8,4-0.8,8-1.9,11.9c-0.2,1.6-0.1,3.2-0.3,4.7c-1.4,6-1.1,12.1-1.5,18.2v0.9c-0.2,3.5,0.7,6.9,2.4,9.9
	C248.9,486.1,246.8,481.8,243.9,483.2z"/>
<path class="st86" d="M376.4,461.6c-2.2-0.1-4.2-1.3-5.4-3.2c-1.5-2.2,1-3.2,2-4.6c3.1-4.2,7.2-7.6,11.8-10c2-1.1,4.8-1.7,6.3,0
	c1.7,2-1.5,2.8-2.4,4.2c-2.3,3.6-5,6.9-7.2,10.6C380.1,461,378.5,462,376.4,461.6z"/>
<path class="st87" d="M264.1,481.9c1.2-0.9,2.8-1.2,4.2-0.9c4.4,0.6,6.4-2,6.5-5.7c0.1-3.5,1.9-3.6,4.2-3c3.2,0.9,6.6,1.1,9.9,0.7
	c2.6-2.2,5.1-2,7.5,0.2c0.1,2.9-2.5,2.7-4.2,3.3s-3.7,1-3.9,3.3c-0.1,2.1,1.8,2.5,3.1,3.4s2.5,1.5,3.7,2.4l0,0
	c0.7,0.3,0.7,0.7,0,1.1C284.8,485.8,274.5,483.5,264.1,481.9z"/>
<path class="st88" d="M393.9,465.4c-13.4,2.5-26.9,5-40.3,7.5c-1.2,0.3-2.5,0.7-3.6,1.1c-9-0.1-17.7,3.1-26.7,2.3
	c-0.6-0.7-0.7-1.8-0.1-2.6c3.6-2.5,7.8-0.5,11.5-1.5c0.6-0.1,1.2-0.2,1.8-0.3c12.5-1.1,24.8-3.2,37-6.2c3-0.8,6.2-0.5,9.1-1.7
	C386.7,461.3,390.2,464.2,393.9,465.4z"/>
<path class="st89" d="M364.7,408.2c3.8-2.5,8.4-2.4,12.4-4.4c1.8-2,3.7-1.5,5.6-0.1c0.7,1.2,1.4,2.4,2.1,3.6
	c-0.2,1.9,0.2,3.7,1.3,5.3c1.1,3.4,0.1,5.2-3.1,2.7c-2.1-1.6-4.1-0.8-6.2-1.2l-5.3-3.8C369.4,408.8,366,411.9,364.7,408.2z"/>
<path class="st90" d="M468.5,419.3c2.6-2.8,5.2-5.7,8.9-9.7c0.8,7.6,3.8,14.1-1.7,20.1C471.9,427.3,469.1,424.1,468.5,419.3z"/>
<path class="st91" d="M382.6,464.2c-9.7,4-20.2,4.9-30.4,6.9c-5.4,1-10.9,2.5-16.5,2.2c-3-1-6.9,2-9.1-2.2c13,0.3,25.8-1.7,38.4-4.4
	C370.9,465.5,376.6,463.8,382.6,464.2z"/>
<path class="st92" d="M357.3,450.9c1-4.6,4.7-7.3,7.6-10.7c2.3-1.3,4.6-2,7.2,0c-3,3.5-5.9,6.7-8.5,10.1
	C361.6,453,359.5,451.8,357.3,450.9z"/>
<path class="st93" d="M468.5,419.3c3,3,6,6.1,7.1,10.5c-0.9,1.6-1.5,3.5-3.6,4.1c-2.2-6.6-5.3-8.7-11.3-7.8
	C463.4,423.9,466,421.6,468.5,419.3z"/>
<path class="st94" d="M388.2,435.1c6.9,2,14,1.2,20.9,0.6c1.7-0.1,3.2-0.9,4.7,0.5c-8.8,4.3-17.7,4.5-26.8,1.1
	C386.5,436,387.4,435.6,388.2,435.1z"/>
<path class="st95" d="M376.8,414.1c2.2-2.8,3.9-7,6.9-0.1c1.4,3.3,2,0.1,2.4-1.3c1.2,2.7,2.7,5.4-1.2,7.2c-3.7,1.7-5.5,0.1-6.6-3.4
	C377.8,415.6,377.3,414.8,376.8,414.1z"/>
<path class="st41" d="M356.8,457.3c0.1-1,0.2-2.1,0.3-3.1c1.5,1,2.9,2.2,4.3,3.4c3.5,3.7,1.4,6-2.1,7.9l-0.2-0.2
	c-4-0.3-6.3-2.8-8.1-6C352.1,456.2,355.4,459.4,356.8,457.3z"/>
<path class="st96" d="M249.3,454.8l0.3-4c1.5-0.3,2,0.8,2.5,1.8c0.8,2.3,0.6,4.7,0.9,7.1c0.1,1.1,0,2.4,1.3,3c3.1,2,7.7,0.5,9.9,4.5
	c-2.3,1.5-4.7,1-7.1,0.4c-5.2-0.9-7.2,1.5-6.2,6.5l-1.5,0.1l0,0C248.6,467.8,248.6,461.3,249.3,454.8z"/>
<path class="st97" d="M364.7,408.2c1.8,2.1,4.9,0.2,6.8,2.1c-7.2-0.1-13.1,2.2-16.2,9.4c-0.1,0.3-1,0.3-1.5,0.5
	C353.6,412.7,359,410.4,364.7,408.2z"/>
<path class="st98" d="M388.2,435.1l-1.2,2.1c-1.7-1-3.4-2-5-3.1c-3.8-2.4-4.7-5-0.7-8.1h7.2c-0.1,0.4-0.3,0.7-0.6,1
	c-2,1.6-6.3,0.3-6.4,3.1C381.5,433.6,385.8,433.8,388.2,435.1z"/>
<path class="st99" d="M357.7,422.3c-0.4-1.2,0.3-2.9,2-2.3c1.7,0.8,3,2.3,3.6,4.1c0.3,1.8-0.8,4.9-2.7,4.8
	C357.4,428.6,358.3,425.2,357.7,422.3z"/>
<path class="st100" d="M295.4,486.5c0-0.4,0-0.7,0-1.1c4.1,0.6,8.4,0.6,12.3,2.2C303.5,488,299.4,487.6,295.4,486.5z"/>
<path class="st101" d="M504.6,355.7c1.3,0.1,2.6,0,3.4,1.2c0.3,0.4,0.4,1,0.2,1.5c-0.6,1.2-1.6,2.2-2.7,2.9
	c-2.2,0.9-4.5,1.5-6.9,1.6c-1.5-0.1-3,0.1-4.4,0.6c-0.4,0.2-0.9,0.3-1.4,0.4c-1.6,0.2-3.3-0.1-4.5,1.3c-0.4,0.7-0.9,1.2-1.5,1.6
	c-12-4-21.5-11-26.7-23c-0.6-1.4-1.3-2.7-2-3.9c-5-14.3-5.3-28.4,2.7-41.8c2.4-4,3.8-9.1,9.1-10.7c3.1-2.3,6.1-4.8,9.9-1.2
	c0.2,0.2,0.4,0.5,0.3,0.8c0.4,0.5,0.4,1.2,0.1,1.8c-0.9,0.9-2,1.4-3.2,1.5c-2.2,0.5-4.1,1.7-5.5,3.5c-10.7,14.4-11.3,38.4-1.7,53.4
	c4.4,6.8,10.1,10.1,18.2,9.6c3.5-0.2,7-0.9,10.6-0.6c1.8,0.2,3.5-1,5.3-0.7L504.6,355.7z"/>
<path class="st44" d="M479.8,288.6l0.3-1.4c8.1,2.1,12.8-1.5,12-9.4c-0.2-2.4-0.7-4.8-1.1-7.1l3.7,3.5c2.4,2.6,2.7,5.7,2.3,9
	c-1.6,6.9-7.1,7.8-12.8,8.2C482.3,291.1,480,291.5,479.8,288.6z"/>
<path class="st102" d="M495.6,283c-0.4-2.9-1.3-5.8-0.8-8.8c17.5,1.8,24.8,13.8,28.9,28.9c-0.4,1.6-1.1,1.6-2.2,0.6
	c-1.9-1.7-3.2-4-5.8-4.8c-2.9,0.7-5.2-1-7.6-2.2c-2.4-1.5-5.4-0.1-7.7-1.7c-0.9-0.7-0.4-2.4-1.4-2.9
	C494.9,290.1,495.9,286.3,495.6,283z"/>
<path class="st103" d="M336.7,452.9c2.4,6.9,1.6,11.3-2.6,14.6c-2.1-4.2,7.1-10-1.9-13.2L336.7,452.9z"/>
<path class="st104" d="M356.8,457.3c-1.1,2.3-4.3,0.3-5.4,2.5c0.2,0.2,0.3,0.6,0.1,0.8c-0.1,0.1-0.2,0.2-0.3,0.2l-2.2,4.6
	c-1.3-3.6,1.5-9.8-5.5-7.8l0,0c2-2,4.8-0.6,7-1.4L356.8,457.3z"/>
<path class="st105" d="M251.8,460.8c-1.5-2.4-0.9-5-1.1-7.6c0.8-5,0.5-10.1,2-15.1c0.7-2.3-1-4.2-0.9-6.5c-2.1-2.4-5-2.2-7.7-2.4
	c-9.7-0.6-19.5-1.2-29.2-1.8c-2.1-3.4-0.2-4.8,2.8-5.1c3.8-0.5,7.7-0.4,11.6,0.1c5.8,0.9,11.7,1.1,17.6,0.5
	c9.1-0.5,15.7,2.9,19.4,11.6c1.5,3.6,3.4,7,5,10.5c2.2,4.8,5.8,7,11,6.7c2.4-0.2,4.8,0.3,7.2,0.1c3.6-1.4,1.8-4.1,1.3-6.2
	c-2.9-14.2-7-28.2-9.9-42.4c-3.3-15.8-5.9-31.8-8.6-47.7c-0.4-2.4-1.4-4.7-1.7-7c-0.5-3.5,0.7-5.6,4.7-4.3
	c3.6,5.2,3.9,11.5,5.3,17.4c2.4,9.5,4.3,19.2,6.4,28.8c4.6,18.3,9.2,36.7,13.8,55c1,3.9,2.3,7.8,2.2,12c-3.1,4.6-7.6,6.5-12.9,6.1
	c-5.8-0.4-12,1.8-17.3-2.4c0.7,0.9,2.3,1.3,0.7,2.7c-1.3,0.8-2.8,1.1-4.3,0.6C263.6,462.7,257.3,463.7,251.8,460.8z"/>
<path class="st106" d="M326.7,471c2.7,2.2,6.5-0.4,9.1,2.2l0,0c-6.6,0.5-13.1,0.9-19.7,1.6c-12.5-0.4-24.7-3.7-37.1-5.2
	c-0.9-0.1-1.7-0.8-1.9-1.8c0.5-3.5,3.4-2.8,5.6-3c1,0,2,0.1,3,0.2c5,1.8,10.3,1.9,15.5,2.4C309.7,468,318.2,469.6,326.7,471z"/>
<path class="st107" d="M285.3,466.5l-2.1-0.1c-10.5,0.7-20.7-1.5-31-2.4c-1.8-0.8-1.7-1.9-0.4-3.1c7.6-1.4,14.8,2.2,22.4,2
	c7.1,0.6,14.3-0.9,21.2,1.6l-3.4,1.9C289.9,467.3,287.5,467.3,285.3,466.5z"/>
<path class="st108" d="M295.4,464.4c-7.1-0.2-14.2-0.3-21.2-1.6l-2.9-1.3c6.5,0.6,13.1,0.8,19.6,0.4c4.1-0.3,9.3,0.6,10.5-5.8
	c0.2-1,0.8,1.4,1.9,1.5C302.7,462.2,299.2,463.5,295.4,464.4z"/>
<path class="st109" d="M313,462.5c-1.7-1.8-0.8-4.2-1.6-6.2c-0.8-2,0.9-3,2.8-3.1c1.8-0.1,3.6,0.2,3.5,2.5c-0.1,3.2,0.5,6.6-1.1,9.7
	c-0.1-3-0.6-6-1.4-8.9C313.4,458.3,315.7,461.1,313,462.5z"/>
<path class="st110" d="M351.1,460.8c0.2-0.3,0.2-0.7,0.2-1c3.6,0.5,4.8,4.2,7.8,5.5C355.2,466,351,467.3,351.1,460.8z"/>
<path class="st111" d="M343.4,457.6c-0.1,3.7,0,7.5-4.1,9.6C341.6,464.4,337.6,459,343.4,457.6L343.4,457.6z"/>
<path class="st112" d="M310.2,464.5c-2.4,0.8-4.9,0.9-7.3,0.2c0.4-2.3,1.8-3.4,4.2-5.6C304.5,464.3,308.4,463.3,310.2,464.5z"/>
<path class="st113" d="M285.3,466.5l6.7-0.1l9.1,1.1C295.8,467.3,290.5,468.5,285.3,466.5z"/>
<path class="st114" d="M179.2,423.9c-4.2-16.6-8.4-33.1-12.4-49.7c-1.9-7.8-3.5-15.6-5.2-23.4c-0.6-2.4-0.7-4.8-0.2-7.2
	c0.3-0.1,0.6-0.1,0.9-0.2c2.6-1.1,5.3-1.7,8.1-1.7c32.5,0,65.1,0,97.6,0c1.3,0,2.6-0.4,4,0.9c-2.1,3.4-0.4,7.5-2,11.1
	c-7.1,14.8-15.1,29.1-24,42.9c-1.7,2.6-3.1,5.5-5.9,7.3c-3.4,1.7-4.9,0.1-6-3.1c-0.9-2.7-0.5-6-3.6-7.6c-3.1-4.2-8.3-6.4-13.5-5.7
	c-5.7-1.3-8.8-5.1-9.5-11c-3.3,1.6-4.2,4.2-5.2,6.5c-5.9,13.7-13.6,26.4-20.2,39.7C181.6,423.9,180.9,425.1,179.2,423.9z"/>
<path class="st115" d="M267.4,354.6c1.1-3.9,2.3-7.8,3.7-12.5c-36.6,0.8-72.7-1.1-108.9,1.2c1.7-2.2,4.3-2,6.6-2
	c32.8-0.2,65.5-0.4,98.3-0.5c3.1,0,6.5-0.4,8.2,3.4c-2.1,0.7-4.2,1-3,4.4c4.1,11.4,5.1,23.5,7.1,35.4c2.8,15.9,6.6,31.6,10.5,47.3
	c1.5,5.9,2.9,11.9,4.1,17.9c0.6,3.2-0.9,5-4.3,4.9c-2-2.2-3.4-4.9-4-7.8c-5.4-22.7-12.2-45.1-15-68.4c-0.7-5.9-1.8-11.7-3.5-17.4
	C266.6,358.5,266.2,356.5,267.4,354.6z"/>
<path class="st116" d="M231.2,391.6c4.5,1.2,3.4,5.4,4.5,8.5c0.7,1.9,0.7,4.2,3.7,2.6c1.2,0.9,1.7,2.6,1.1,4
	c-2.5,6.3-5.2,12.5-11,16.7c-1.5,0-3,0-4.4,0c-10.7,0-10.9-0.1-15.3,9.9c-2.6,5.9-6.6,10.3-12.9,10.8c-4.4,0.4-3.6,5.1-6.8,5.8
	c-3.1-0.7-4.4-3.3-5.2-5.8c-2.1-6.6-4.5-13.2-5.5-20.1c5.2-12.4,13.7-23.1,18.3-35.9c1.3-3.3,2.9-6.5,4.8-9.5c1.4-2.3,2.4-6,5.7-5.2
	c2.3,0.5,2.3,3.9,2.4,6.3c0.1,4.6,4.8,4.1,6.9,6.3c0.7,1.9-0.8,3.1-1.6,4.5c-2.7,5.4-1.5,13.3,2.8,17.5c2.9,2.8,6.3,4.1,10,1.9
	s5-5.3,4-9.8C232,397.3,229.5,394.8,231.2,391.6z"/>
<path class="st117" d="M190,449.9c-1.8-5.1,0.3-7,5.5-7.5c6-0.5,10.1-3.8,12.3-9.7c2.5-6.9,6.7-11.4,15-9.9c2.2,0.4,4.4,0,6.7,0
	c5.1-2.1,10.5-1.2,15.8-0.8c1.6,0.1,3.3,0.8,3.3,3c-9.6,0.7-19.2-1-28.8-1.1c-2.5,0-5.1-0.1-4.7,3.6c-4.8,8.3-7.8,17.3-10.3,26.5
	C199.2,454.7,194.4,452.8,190,449.9z"/>
<path class="st118" d="M469.9,287.5c-6.4,9.7-13.1,19.4-13.1,31.8c0,7,1,14,3,20.8c-2.6,4.2-6.6,6.1-10.5,4.9
	c-4.2-1.3-4.5-4.8-4.7-8.5c-0.3-6.3,0.2-12.6,1.6-18.8c0.7-2.3,0.5-4.8-0.6-7c-0.6-1.5-0.5-3.1,0.3-4.5c2.9-7.5,6.1-15,9-22.5
	c0.8-1.5,1.3-3.3,3.7-2.9c3,1.6,2.8-1.5,3.6-2.6c2-2.9,4.7-3.6,7.7-2.5c2.3,0.8,4.6,2.5,4.7,4.9c0.1,2.2-2.7,1.1-4.1,1.6
	c-1.8,0.6-3,2.3-3.1,4.2C467.2,287.9,469.4,286.4,469.9,287.5z"/>
<path class="st119" d="M439.7,227.1c10.1,4.9,16.6,13.5,22.4,22.6c2.4,3.7,5.8,6.8,6.9,11.3c0.6,2.6,1,4.1-2.6,4.4
	c-2.8,0.2-5.7,1.5-5.1,5.5c0.4,1.8-0.4,2.9-1.9,3.7c-3.7,0-3,4.2-5.2,5.5c-3.2,0.6-4.1-1.8-5.2-4c-4.7-9.6-11.2-17.8-18.5-25.5
	c-3.3-3.4-7.3-5.6-11.4-7.8c-3.6-1.9-6.1-5.5-10.1-6.9c-1.3-0.3-2.1-1.7-1.8-3c0,0,0-0.1,0-0.1c0.5-1.5,1.9-1.6,3.2-1.6
	c1.3,0.1,2.6,0.5,3.7,1.2c14.9,8.1,27.7,18.4,35.4,33.2c-1.5-2-2.6-5-4.6-7.5c-1.2-2.7-1.7-5.5-1.7-8.5c-0.1-6.3,0.7-13.1-3.7-18.7
	C438.5,230,438.6,228.2,439.7,227.1z"/>
<path class="st120" d="M343.5,223.8l-2-1c4.4-1.9,8.4-4.9,13.2-5.8c6-0.1,11.3-3.1,17-4c6.5-1.1,13.1-1.2,19.3-2.2
	c-3-0.2-6.5,2.1-9.5-0.9c17.1-1.5,33.3,0.9,48,10.3c-0.3,3.6-0.3,7.1,1.3,10.5c0.8,1.8,1.1,4-1.5,5c-4.7-0.1-7.5-4.1-11.7-5.6
	c-3.3-1.1-6.1-3.4-9.6-3.9c-12.6-4.8-25.7-7.3-39.2-6.5c-6.8,0.3-13.6,1.6-20.1,3.6C347,224.1,345.3,224.9,343.5,223.8z"/>
<path class="st121" d="M429.4,235.1c1.3-2.6-0.3-4.6-1.4-6.5c-2.1-3.4-1.8-6.1,1.6-8.2c4.1,1.1,6.8,4.4,10,6.8
	c0.4,1,0.4,2.4,1.2,3.1c5.8,5.1,4.6,12,4.3,18.2c-0.2,3.4,0.2,6.9,1.4,10.1c-3.6,0.4-3.6-3.4-5.6-4.9c-1-5.5-6.9-7.4-8.9-12.2
	C431.7,239.2,428.7,237.9,429.4,235.1z"/>
<path class="st122" d="M381.7,210c4.3,0.5,8.7-0.7,13.5,0.8c-12.7,3.1-25.4,3.6-37.4,7.1c-1.1,0.4-2.3,0.1-3-0.9
	C363.3,213.3,372.2,210.6,381.7,210z"/>
<path class="st123" d="M458.8,274.1l2.5-3.1c1-0.8,2.1-1.5,3.2-2.1c1.9-0.9,3.9-0.7,4.4,1.7c0.5,2.5-1.6,1.6-2.9,1.9
	c-4.4,1-5.6,4.9-7.3,8.4l-2.3,3.3c-1.6,0.3-1.9-0.8-2.2-1.9c0-0.8,0.2-1.7,0.6-2.4C455.8,277.6,455.5,274.7,458.8,274.1z"/>
<path class="st124" d="M315.6,266.5c-7.2,4.2-11.6,10.8-15.8,18.2c-1.6-1.8,0.3-3.4-0.3-4.8c-0.6-1.4-1.3-3.2,0.3-4.6
	c6.7-10.2,14.5-19.3,24.4-26.6c7.4-5.4,14.9-10.7,23.5-13.9c3.4-1.2,1.2-1.3,0.1-2.1c-0.4-0.3,0-1.1,0.3-1.6c4-3.9,9.4-3.4,14.2-3.8
	c9.4-0.6,18.9-1.2,28.3,1c10.5,2.5,20.3,7.2,28.9,13.7c7.5,4.7,14,10.8,19.1,18c1.2,1.7,2.3,3.4,2.1,5.5c-2.9,5.5-6,6.8-11.7,4.4
	c-5.3-2.2-10.5-4.5-16-6.3c-3.7-1.3-7.5-2-11.4-1.9c4.5,1.4,8.8,1,12.6,2.5c2.1,0.8,5,1.1,4,4.6c-1,0.8-2.4,1.2-3.7,0.9
	c-11.2-2.8-22.2-1.7-33.2,1.2c-4.3-3.2-8.4-1.8-12.2,0.8c-3.4,2.3-6.6,4.7-9,8.1c-1.3,1.9-2.9,4.1-5.8,3.5c-2.6-1.3-3.2-3.9-4.1-6.3
	C344.4,262.7,326.3,259.4,315.6,266.5z"/>
<path class="st125" d="M294.2,340c-2.3-16.8-1.4-33.5,1.2-50.2c2.3,0,3,1.6,3.4,3.4c2.8,3.8,0.9,7.9,0,11.6c-1.1,4.9-0.4,9.9-1,14.8
	c-0.4,3.5,2.2,2.3,4,1.3c7.6-2.6,12.9-0.8,17.1,5.9c3.2,4.9,4.2,10.9,2.8,16.6c-1.1,5.5-5.4,9.7-10.9,10.7c-4,0.8-8.3,1.4-10.8-3.2
	C297.2,347.7,294.8,344.3,294.2,340z"/>
<path class="st126" d="M391.5,230.5c-12.4-1.9-24.9-1.8-37.2,0.2c-2.2,0.4-4.5,0.4-6.3,1.9c-0.9,2.5-3.2,2.9-5.3,3.5
	c-14.8,4.4-26.8,12.4-34.1,26.6c-1.1,2.2-2.1,5.4-5.5,5.8c-1.7-3.6,1-6.7,1.3-10c4.8-1.1,3.6-6.6,6.6-9c3.5-1.2,5.9-3.7,8-6.4
	c2.1-4.4,6.7-5.5,10.5-7.6c2.5-1.4,5.2-2.5,7.7-4c0.1,0,0-0.4-0.1-0.5c-0.1-0.2-0.2-0.3-0.4-0.4c-2.5-0.6-1.1-1.8-0.1-2.4
	c2.2-1.5,4.6-2.8,6.9-4.2c22.1-8.3,44.1-7.2,65.9,1.1c0.2,1.7-1,2.1-2.3,2.5c-6.4-0.7-12.1-4.2-18.6-4.3c-11.5-1.7-24.9-1.3-34.2,1
	c5.1-1.3,10.4-1.4,15.6-1.9c5.4-0.5,10.8-0.4,16.1,0.5c6.1,1.4,12.7,1.1,18,5.3c0.3,1.3-0.6,2.6-1.9,2.8c-0.4,0.1-0.8,0.1-1.1,0
	C397.8,230.1,394.6,231.6,391.5,230.5z"/>
<path class="st127" d="M302,323c-2.3,0.3-2.6,3.7-5.7,3.5c-1.1-11.2,0.4-22.3,2.5-33.3c1.4-3,2.9-6,4.1-9.1
	c7.6-20.5,35.4-23.9,44.6-5.3c3.3,2,5.2,5.7,4.8,9.6c-2.3,3.3-3.9,0.6-5.1-0.9c-2.6-3.1-5.4-6.1-8.4-8.8c-9.9-8.5-22.2-6.3-28.3,5.3
	c-5.4,10.3-7.9,21.5-9.2,33C300.9,319.1,302.5,320.9,302,323z"/>
<path class="st128" d="M303,268.5c8.7-19.8,23.8-31.5,44.9-35.8h6.4c-6.6,4.6-13.8,7.4-20.3,11.6c-12.4,8-22.5,18.2-31.5,29.6
	c-0.7,0.9-1.2,2-2.6,1.5C299.4,272.3,302.8,271.1,303,268.5z"/>
<path class="st129" d="M351.6,288.7l-4.1-10l1.6-1.4c3.7,0.1,2.4,5.1,5.6,5.7c2.7-1.5,4-4.3,5.9-6.5c3.5-4.1,7.9-7.2,12.9-9.2
	c3.3-1.3,5.3-0.6,6.8,2.3c0,0.8-0.3,1.6-0.9,2.2c-4,2.9-8.6,4.5-12.8,7c-3.7,1.7-6,4.7-8.3,7.8c-1.3,1.8-2.3,3.8-4.5,4.7
	C351.9,291.4,351.7,290.1,351.6,288.7z"/>
<path class="st130" d="M354.7,283.1c-1.4,1.6-2,0.4-2.7-0.7c-1-1.7-2-3.3-3-5c-9-13.4-19-16.7-33.5-11c-1-3.1,1.9-2.9,3.2-3.2
	c14.5-2.6,25.6-2.2,33.5,14.8C353.1,279.8,353.9,281.4,354.7,283.1z"/>
<path class="st131" d="M336.7,230.4c1.5-0.5,2.9-1.8,5.5-0.1c-8.4,3.9-16.4,7.3-23.3,12.6c-0.4-3.8,2.8-4.7,5.1-6.1
	C328.2,234.5,332.5,232.6,336.7,230.4z"/>
<path class="st132" d="M439.7,265.1c-5.2-8.8-12.6-15.7-20.1-22.4c-0.3-0.2-0.5-0.4-0.3-0.6s0.2-0.3,0.3-0.3
	c8.9,3,14.6,9.9,20.1,16.8c4.5,5.6,9,11.2,11.5,18.1c0.5,1.4,1.2,2.7,3,2.9c0.3-0.3,0.7-0.4,1.1-0.1c0.1,0,0.1,0.1,0.1,0.1
	c0,0.7,0,1.5,0,2.2c-1.6,8.1-6.4,15.1-8.4,23c-1.9,5.8-3,11.8-3.4,17.8c-1.4,4.4-1.5,9.2-0.2,13.6c0.1,0.6,0.2,1.2,0.2,1.8
	c2.4,11.2,3.5,22.7,8.4,33.3c2.4,5.3,6.2,8.2,12.2,7.8c2.6-0.1,5.2-0.1,7.8-0.1c1.7,0,4.1-0.4,3.7,2.7c-3.1,3.6-8.3,3.5-11.2,2.5
	c-8-2.6-13.8,1.2-20.3,4c-6.8,2.9-13.7,5.5-21,6.6c-9.4,1.3-18.7,2.6-28.1,3.8c-4.5,0.5-9.1,0.7-13.6,1.6c4.4,1.1,9.2-1.4,13.4,1.1
	c-4.1,0.5-8.3,0.5-12.2,2.3l-5.6,0.1l-2.3-1.2c-5.2,0.1-10.5-1.7-15.5,1.6c-1.8,1.1-4.2,1.5-6-0.6c-0.5-1.2-0.1-2.4,0.3-3.6
	c0.6-1.7,0.1-2.6-1.8-2.8c-6.3-1.4-12.4-3.3-18.4-5.7l2.6-1.4c1.7-1.8,4-1,5.8-0.7c9.7,1.8,19.5,2.9,28.8,6.5c1.7,0.8,3.6,1,5.5,0.8
	c20-3.2,40.4-4.1,59.7-10.8c3.3-1.2,6.7-2.4,10-3.6c2.6-0.9,3.6-2.2,1.8-4.9c-7-10.6-7.9-23.1-9.9-35.1c-2.6-15.7,0.7-30.7,5.7-45.4
	c6.6-8.7,5.2-17-1-25.2C441,269.8,440.1,267.5,439.7,265.1z"/>
<path class="st80" d="M351.8,397.3c2.3-0.2,3,1.1,2.8,3.1c-0.3,0.8-1.2,1.3-1.1,2.3c1.3,1.3,3.5,1.3,4.9,0c0,0,0.1-0.1,0.1-0.1
	c4.9-5.5,10.4-0.9,15.6-1.3c0.2,0,0.5,0.9,0.7,1.4c-5,1.8-10.2,2.5-15.3,4.4c-3.5,1.4-8.8,1.7-11.8-3c-0.8-1.3-1.7-2.4-3.4-2.6
	c2.1-1.9,4.8-1.3,7.2-1.8S352.7,398.2,351.8,397.3z"/>
<path class="st133" d="M351.6,288.7l1.8,2.4c0.8,0.5,1.8,0.3,2.3-0.4c0,0,0-0.1,0.1-0.1c2.8-4.9,6.9-8.8,10.1-13.3
	c4-2.9,8.5-5.2,13.2-6.8c10-2.6,19.4-1.6,28.3,3.8c10.4,6.3,15.3,17.1,12.9,28.9c-0.1,0.7-0.3,1.5-0.5,2.2
	c-2.2,8.7-5.1,16.8-15.8,18.1c-2.4,1-4.8,2-7.2,2.9c-11.6,4-13.9,21.7-1.2,26.8c0.5,0.3,1,0.5,1.4,0.9c2.2,1.6,3.9,3.3,1.5,6
	c-0.3,0.4-0.7,0.8-1.1,1.3c-4,4.9-3.5,6.3,2.7,8.1c2.8,0.8,6-0.1,8.3,2.3c1.5,4.3-1.6,5.7-4.5,6.9c-6.8,2.9-14,3.8-21.2,4.6
	c-13.3,1.4-26.6,3.4-40,3.6c-1.5,0-3,0.1-4.1,1.4c-6.9,0.2-12.6-3.5-18.5-6.2c-7.7-3.3-13.8-9.6-17-17.4c-1.7-4.5-5.5-8.5-3.2-13.9
	c8.4,3.2,15.5,1.2,18.8-5.4c3.3-6.6,0.4-18.2-5.7-22.1c-3.3-2.3-7.7-2.4-11.1-0.3c-2.8-0.8-3.6-2.4-3.2-5.4
	c1.7-11.2,4-22.2,8.7-32.8c5.1-11.6,20.7-20.8,34.4-6.3C345.1,281.9,347.4,286.2,351.6,288.7z"/>
<path class="st134" d="M303.1,364.8c9,11.7,20.8,19.1,34.7,23.5c0.4,0.1,1.3-0.1,0.9,0.6c-0.8,1.6-2.1,1.1-3.3,0.5
	c-9.9-3.1-19.7-6.4-27.8-13.2C305,372.9,303.4,368.9,303.1,364.8z"/>
<path class="st135" d="M335.4,389.3c0.6-0.7,2.3,0.7,2.4-1.1c-1.1-2.6-0.8-4.7,2.6-4.1c10.6,1.7,21-0.9,31.4-1.9
	c10.8-1,21.8-1.6,32-5.8c2.3-1,4.7-1.7,3.4-5c0.2-3.7-1.5-6.1-4.6-7.9c-2-1.1-4.4-2-5.5-4.4c2.8-2.1-0.9-2.2-1.1-3.4
	c1.7-2.1,4-1.5,6.2-1.3c7.1,0.5,14.1,0.5,20.7-2.9c6.5-3.4,8.8-10.3,4.8-16.4c-4.6-7.2-10.7-12.3-20.1-11.5
	c-1.8,0.2-3.8,0.3-4.9-1.7c0.7-0.3,1.3-1,2-1c7.2,0.1,9.1-5.2,11.3-10.6c9.4-22.9-5.8-37.1-26.3-39.6c-3.5-0.3-7.1-0.3-10.6-0.2
	l1.2-1c0.4,0.1,0.7,0.1,1.1,0c12.2-4.8,24.5-4.6,37-1.1c2.2-1.3,4.4-0.5,6.3,0.5c7.3,3.8,13.9,8.4,18.5,15.5
	c2.5,3.8,3.8,7.5,2.1,11.9c-2.9,9.6-5.5,19.3-6.6,29.3c-1,9.3,1,18.5,2.8,27.5c1.5,7.8,2.6,15.8,7.3,22.7c1.3,1.9,2.4,3.8,5.2,5.1
	c-10.6,5.1-21.1,9-31.9,11c-15.3,2.9-30.8,4.8-46.2,7.1c-1.5,0.2-3.2,0.5-4.4-0.1c-11.3-5.4-23.9-5.3-35.6-8.9
	C335.8,389.9,335.6,389.6,335.4,389.3z"/>
<path class="st136" d="M520.1,310c4,7.4,2.8,17.8-2.8,23.7c-1.3,1.3-2.6,2.6-3.9,4c-4,4.9-10.6,5.5-16.1,1.5
	c-7.8-5.5-10.6-17.4-6.7-28.1c3.1-2.6,4.7-7.2,9.7-7.1c1.2,0.9,1.4,2.3,1.6,3.6c0.6,1.7,2.3,1.7,3.6,2.4c0.5,0.3,0.9,0.6,1.2,1
	c1.5,3.5,3.6,5.5,7.5,2.8c1.3-1.9-0.6-4.6,1.5-6.3C517.8,306.9,518.6,309.1,520.1,310z"/>
<path class="st137" d="M512.4,342.3c3.4-0.4,6.7-1.3,9.8-2.7c-2.9,9.4-9.7,13.3-17.6,16.1l0,0c-6.2,1.3-11.2-2.1-16.3-4.6
	c-2.1-1.1-4-2.5-5.7-4.3c-1.1-1.3-2.3-2.6-2.3-4.5c1.5-4,2.9-7.9,7.3-9.6c2.3-0.2,3.7,1.4,5.1,2.8c2.5,2.4,5.1,4.8,8.7,5.7
	c3.3,1.2,6.8,0,10.2,1L512.4,342.3z"/>
<path class="st138" d="M501.1,342.4c-6.1-0.6-9.3-5.3-13.2-9.1c-3.9-1.7-4.1-5.3-4.5-8.8c-1.1-9.8,2-18.5,7.6-26.4
	c2-2.4,4.3-4.2,7.6-4c3.4,1.6,7.2-0.1,10.7,1.1l6.4,3.7l-1.1,1.1c-1,0.9-2.4,1.2-3.6,0.6c-7.8-2.8-12.7,0.9-16.6,7.1
	c-0.7,1.1-1.3,2.2-2,3.3c-1.3,4.3-1.6,8.8-1.1,13.2c1.3,12.8,9.7,17.8,22.2,13.4c3.9,2.4-0.4,3.2-1,4.7l0,0
	C508.7,343.2,504.8,343.2,501.1,342.4z"/>
<path class="st139" d="M507.7,357.8c0-0.3,0.2-0.6,0.3-0.8c4-0.7,6.5-4.1,10.1-5.6c5.1,2.6,7.1,7.8,10,12.2
	c-3.3,1.4-5.3,3.3-5.8,7.4c-0.4,3.6-2.5,6.9-7.3,6.6c-1.3-0.6-2.1-2-2.1-3.4c0.4-3.8-2.2-6.4-3.4-9.6
	C508.8,362.3,507.2,360.3,507.7,357.8z"/>
<path class="st140" d="M492.3,311c2.7-11.6,9.4-17.3,22.2-11.1c3.1,2.7,3.5,6.9,5.5,10.1l-4.3-2.4c-1.3,0.2-2.6-0.1-3.8-0.8
	c-3.7-2.2-7.7-3.5-12-2.6L492.3,311z"/>
<path class="st141" d="M520.2,389.3c-3.3-1.6-4.4-4.7-5.6-7.8c0.2-0.7,0.7-1.3,1.4-1.6c2.3-0.5,2.8-2.8,4-4.4
	c4.1-5.1,7.4-5.9,13.5-3c9.7,15.3,16.9,31.5,18.8,49.9c-4.5-13.2-15.7-20-25.9-27.6c-3.1-2.3-3.7-5.7-4.9-9
	C519.6,386.7,520.6,388.2,520.2,389.3z"/>
<path class="st142" d="M546.1,428.7c1.5,7.1-4.8,9.1-8.5,12.5c-1.7,1.6-3.6,5-6.1,3.8c-2.6-1.2-1.2-4.8-1.2-7.2
	c0.1-5.4-0.7-10.8-2.5-15.9c-2-5.9-1.8-12.1-2.8-18.1c-0.4-2.3,1.2-4,3.4-2.1c6.7,5.9,13.2,12.1,16.9,20.5
	C546.2,424,545.9,426.5,546.1,428.7z"/>
<path class="st143" d="M502.3,445.4c0-2.6-0.1-5.2,0-7.8c0.3-4.6,2.5-5.9,6-3.2c6.3,4.8,12.6,9.9,13.6,18.7
	c0.5,3.9-3.5,9.4-8.5,10.8c-3.5,1-8.4-1.6-9.9-5.4c-0.5-1-0.8-2.1-0.9-3.2c-0.3-3.3-0.4-6.7-0.5-10L502.3,445.4z"/>
<path class="st144" d="M551.5,440.8c-0.4,12.3-6.3,20.7-15.6,27.3c-1.7,1.2-2.5,0.9-3.5-0.7c-5.4-8.2-4.2-14.2,3.7-19.8
	c3.8-2.7,7.2-5.8,10.9-8.6c1.1-0.8,2-2.8,3.7-1.7C552.2,438.1,551.2,440,551.5,440.8z"/>
<path class="st64" d="M533.7,372.5c-11.2,1.1-12.7,2.2-15.3,11.4c-2.3-0.2-1.1-2.9-2.6-3.6c-0.9-0.8-1.1-2.2-0.3-3.1
	c0,0,0.1-0.1,0.1-0.1c3.4-2.4,5.7-4.9,5.1-10c-0.6-5.5,3.8-4.4,7.3-3.5C529.9,366.6,532.5,369,533.7,372.5z"/>
<path class="st145" d="M486.7,365.6l0.1-2c2.1-1.3,3.5-0.6,4.3,1.6c0.8,1.9,1.4,3.8,1.8,5.9c1.2,5.4,3.1,10.6,4.6,15.8
	c2.1-2.8,3.7-5.9,4.5-9.3c1.4-6.2,2.9-7.2,9.7-7.8c1.5,0.7,1.8,2,1.7,3.4c-0.2,1.3-1,2.4-2.1,3.1c-2.9,1.9-2.7,4.5-1.8,7.2
	c0.9,3.1,2.3,6.1,2.9,9.3c0.2,2.9-1.5,5-3.3,6.8c-4.8,4.8-8.6,3.8-10.7-2.5c-0.4-1.2-1-2.3-1.8-3.3c-0.3,5,1.4,9.5,2.3,14.3
	c0.2,1.2,0.7,2.8-0.6,3.6s-2.3-0.6-3.4-1.3c-2-1.2-2.8-4.8-6.3-3.2s-2.9,4.8-3.2,8.5c-2.2-3.4-2.2-6.6-3.1-9.5
	c1.5-1.2,0.5-2.8,0.5-4.2c-0.1-3.9,1.2-7.4,4.6-8.9c4.5-2,4.3-4.8,3-8.5c-0.8-2.2-0.7-4.8-2.3-6.8c-1.2-2.8-0.7-6-1.5-8.9
	C486.4,367.8,487.4,366.8,486.7,365.6z"/>
<path class="st146" d="M489.9,377c2.1,3,2.1,6.7,3.2,10c1,3,2.3,5.9-3.3,6.6c-4,0.5-5.3,4.6-5.5,8.7c0,1.3,1.5,4.1-2.1,3.7
	c-0.7-3.4-2.2-6.5-2.1-10.1c2.5-3.4,3.3-7.4,4.6-11.3C485.9,381.7,486.6,378.5,489.9,377z"/>
<path class="st147" d="M489.9,377c-1.9,4.4-3.5,8.9-4.8,13.5c-0.6,2.3-1.2,5.5-4.9,5.4c-0.5-4-1-8-1.5-12c-0.1-1.2-0.5-2.1-2-1.9
	l-0.2-0.4c-0.2-0.8-0.1-1.7,0.6-2c4.8-2.6,8.7-6.6,11.1-11.6C490,370.7,488,374.3,489.9,377z"/>
<path class="st148" d="M512.3,392.7c-3.1-4.1-3.4-9.4-6-13.6c-0.9-1.5-0.3-3,1.7-3.1c1.8-0.2,2.9-1.5,4.3-2.4
	c0.6-0.6,1.6-0.6,2.1,0.1c0,0,0.1,0.1,0.1,0.1c0,1.2,0,2.5,1.1,3.4l0.1,3.3l-1.1,1.1c-3.3-1.7-4.3-0.6-3.7,2.9
	C511.4,387.1,513.9,389.6,512.3,392.7z"/>
<path class="st149" d="M251.8,431.7c2.1,1.6,2.2,3.9,1.7,6c-1,5.1-0.2,10.6-2.9,15.5l-1-2.4c0.6-4.1,1.1-8.3,1.7-12.5
	c0.3-2.1,0.4-4-1.8-5.2C249.9,432.3,250.8,431.7,251.8,431.7z"/>
<path class="st150" d="M488,367.9c1.9,9.5-6.1,10.5-11.6,13.6c-0.2,0.1-0.5,0.2-0.7,0.3c-4.1-1.5-8.3-0.3-12.3-0.2
	c-6.5,0.1-10.7-2.9-13.1-8.3c-2.8-6.4-5.7-12.9-5.9-20c-0.2-5.4-3.6-10.2-2.2-15.8c0.2,0,0.5,0,0.5,0.1c0.2,0.6,0.6,0.5,0.5,0.1
	c-1.8-8.8,0.5-17.2,1.9-25.7c0.1-1,0.7-1.8,1.6-2.1c3.4,1.8,2,4.8,1.5,7.3c-1.3,6.1-1.9,12.4-1.8,18.6c0.2,7.9,2.7,9.4,10,6
	c1.2-0.6,2.3-1.1,3.5-1.7c3.4,4.3,5.2,9.6,8.9,13.7c3.5,3.8,7.4,7,12.2,8.1c2.7,0.6,3.9,2.4,5.7,3.7L488,367.9z"/>
<path class="st96" d="M277.2,467.8l38,5.5c2.5,1.2,5.5-0.6,8,1.2c0,0.7,0,1.3,0,2l-12.4,0.3c-4.2-1.8-8.7-1.3-13.1-1.4
	c-0.5-0.2-1.2-0.2-1.1-1.1c-2.5-1.1-5.1-1.2-7.7-1.2c-7.8-2.3-16.1-1.6-23.9-4.2c0.5-3.7,3.4-2.5,5.6-2.8
	C272.9,466.5,275.5,465.8,277.2,467.8z"/>
<path class="st149" d="M271,467.4c-2,0.5-4.2-0.4-5.9,1.3c-2.7-0.2-5.5,0.3-8-1.1c2.3-0.5,4.9,0.7,6.9-1.2
	C266.6,465.2,269.1,464.1,271,467.4z"/>
<path class="st151" d="M356.8,409.5c-3.7,3.7-6.6,8.2-8.3,13.1c-0.4,1.1-0.8,2.8-2.4,2.6c-1.9-0.3-2.6-2.1-3-3.6
	c-0.8-3.1,1.7-0.5,2.2-1.2c1.7-2.1,3.4-4.3,4.9-6.6C351.6,411.8,353.2,410.3,356.8,409.5z"/>
<path class="st152" d="M346.7,407.5c0.2,1.7-1.5,2.3-2,3.7c-0.5,1.3-1.3,2.8-2.5,2.2c-1.7-0.9-1.2-2.6,0.1-4
	C343.5,408,344,405.3,346.7,407.5z"/>
<path class="st153" d="M346.7,407.5c-2.2-1.2-2.8,1.6-4.3,1.9c-0.1-1.9,0.6-3.8,2-5.1L346.7,407.5z"/>
<path class="st100" d="M296.7,474.2l1.1,1.1c-3.9,2.7-4.4,6.1-2.4,10.2c-4.1-0.5-9.8,0.2-9.6-5.8
	C286.1,472.9,292.4,474.8,296.7,474.2z"/>
<path class="st149" d="M249.3,454.8c0,6.5,0.1,13,0.1,19.5C247.8,467.9,247.8,461.2,249.3,454.8z"/>
<path class="st91" d="M323.2,474.5c-2.6-0.6-5.4,0.1-7.9-1.2l20.4-0.1C331.7,474.9,327.3,473.6,323.2,474.5z"/>
<path class="st113" d="M271,467.4c-2.2-1-4.6-1.3-7-1c-4.2,0.2-8-1.4-11.9-2.5c4.7-2.5,9.4-0.1,14,0.3c5.7,0.5,11.3,1.4,17,2.1
	c-2,0.5-4.3-0.4-5.9,1.5L271,467.4z"/>
<path class="st154" d="M500,357.9c-1.8,0.2-3.7,0.3-5.5,0.7c-14.8,3-24-1.9-29.9-16.3c-7.3-17.9-4.7-34.8,5.6-50.9
	c1.6-2.4,3.6-3,6.1-2.7c3.4,1.4,2.7,3.8,1.6,6.4c-2.3,5.4-4.5,10.9-5.5,16.8c-2.3,13,1.1,24.3,10,34c4.2,4.2,9.6,6.5,15.1,8.5
	C499.2,355,501.7,355.1,500,357.9z"/>
<path class="st155" d="M511.2,370.3c-5.6,1.7-7.7,5.8-8,11.4c-0.2,3.8-4.9,4.9-5.8,9.7c-2.7-7.3-5.9-13.2-6.2-20.1
	c1.1-1.5,1.1-3.5,0-5c-1.5-2.4,0.5-3,2-3.9l0,0c0.5-0.3,1.3-0.6,1.5-0.3c1.5,1.9,2.3,0.8,3.1-0.6c2.4-1,5-1.4,7.6-1.3
	c1.3-0.9,2.6-0.6,3.2,0.7C509.9,363.9,512.7,366.5,511.2,370.3z"/>
<path class="st156" d="M482.2,346.8c-12.8-11.1-13.9-25.2-10.2-40.3c1.1-4.1,2.6-8.1,4.5-12c0.9-2.1,1.5-3.8-0.1-5.7l3.5-0.2
	c1.4,1.4,3.2,1.1,4.9,1.3c0.2,0.5,0.2,1.1,0,1.7c-8.4,10.8-10.6,23.1-8.7,36.3c0.2,1,0.5,2.1,0.9,3c0.2,4.2,4.9,6.8,4.2,11.3
	l2.2,3.3C483.7,346.7,483.2,347,482.2,346.8z"/>
<path class="st60" d="M482.2,346.8c0.4-0.4,0.8-0.8,1.2-1.2c6.1,5.5,13.6,7.9,21.2,10.2c-1.1,1.3-2.8,2.1-4.6,2.1
	c-1.2-3.4-4.6-3.2-7.1-4.4C489,351.6,485,350.2,482.2,346.8z"/>
<path class="st64" d="M511.2,370.3c-1.4-3.7-1.3-8.3-5.8-10.1c0-1.5,0.5-2.5,2.2-2.3c3.1,5,6.8,9.7,6.9,15.9l-2.2-0.2
	C512.3,372.3,512.3,371.1,511.2,370.3z"/>
<path class="st147" d="M493.3,362.3c-0.9,1.1-2.2,2.2-0.4,3.7c3.8,3.1,1.5,4.3-1.6,5.2c-2-2.2,0.2-6.9-4.4-7.6
	C488.7,361.3,491.1,362.5,493.3,362.3z"/>
<path class="st147" d="M497.8,361.4c-1.6,2.5,3.3,3,1.7,5.6c-3-0.3-3.3-4.3-6.2-4.7C494.7,361.2,496.2,361.2,497.8,361.4z"/>
<path class="st157" d="M475.2,331.2c-0.7-0.6-1-1.6-0.6-2.4c1.7-2.2,0.5-4.7,0.8-7c1.1-9.2,3.8-17.8,10-24.9c2.2-2.5,2-4.4-0.9-6
	c0-0.4,0.1-0.7,0.2-1.1c4.5-0.9,9.4-1.1,10.9-6.8c0.7-0.2,2-0.3,1.8,0.2c-1.7,5.5,1.4,7.6,6.2,8.4c-0.7,2.1-2.8,1.1-3.6,2.5
	c-0.5,1-1.7,0.5-2.3,1.2l-5.4,3.5c-7.1,7.3-11.1,17.1-11.3,27.3c0,1.5-0.1,2.9-0.4,4.4c-0.4,1.5-0.9,2.9-2.5,3.4
	C476.1,334.3,476.4,331.9,475.2,331.2z"/>
<path class="st60" d="M497.7,295.2l2.3-1.2c3,0.4,6.3-0.9,9.2,1.1L497.7,295.2z"/>
<path class="st158" d="M248.4,425c-3.4-2-7.2-0.9-10.9-1c-2.8-0.1-5.5-0.5-8.2-1.2c2.7-7,9.5-12,10.1-20.1
	c8.9-14.2,18.7-27.8,25.1-43.3c0.8-1.6,1.8-3.2,2.8-4.7c5.6,14.2,5.5,29.6,9,44.3c4.2,17.8,7.7,35.8,13.6,53.1
	c0.2,0.6-0.2,1.4-0.3,2.1c-11.8,1.9-20.2-1.8-23.4-14.2c-0.4-1.6-1.6-2.9-2.1-4.5C261.7,427.8,255.8,425.2,248.4,425z"/>
<path class="st159" d="M231.2,391.6c0.9,3.2,3.1,5.9,3.3,9.4c0.3,4.8-0.7,9-5.6,11s-9.1,0.3-12.4-3.5c-5.8-6.7-5.4-16,0.8-22.5
	C223.4,384.2,227.5,387.5,231.2,391.6z"/>
<path class="st160" d="M446.7,309.9c-2,11.1-2.6,22.3-2,33.6c-2.2-2-1.7-4.4-2.6-6c0.2-0.2,0.2-0.5,0-0.7c0,0,0,0-0.1-0.1
	c-1.1-4.8-1.1-9.8,0-14.6c-0.2-6.2,2.5-11.8,3.5-17.8c2.8-1,2.7,0.4,2.1,2.4C447.1,307.7,446.1,308.5,446.7,309.9z"/>
<path class="st161" d="M447.6,306.7c-0.3-1.1-0.7-2.2-2.1-2.4c2.8-7.7,6.1-15.2,9.8-22.5c0.3,0.7,0.7,1.5,1,2.2L447.6,306.7z"/>
<path class="st150" d="M419.5,241.8c0,0.3,0,0.6,0,1c-8.7-5.7-18.2-9.3-28-12.3c3.8-2.5,8.4-0.8,12.4-2.3c1.2-1.4,2.8-0.9,4.1-0.4
	c14.1,4.5,25.9,12.4,33.8,25.2c1.5,1.9,2.5,4.2,4.7,5.6c2,4.4,5.4,8.2,6,13.3c-10.6-17.7-24.4-31.5-44-38.7
	C412.5,235.6,416.2,238.5,419.5,241.8z"/>
<path class="st150" d="M455.3,279.7h-1.2c-0.1-2.7,0.6-5,2.9-6.6c1.2-0.8,1.5,0.2,1.7,1.1C457.7,276,457.1,278.2,455.3,279.7z"/>
<path class="st162" d="M407,226.1l2.4-1.2c7.4,1.9,13.5,6.4,20,10.1c0.7,2.1,4.3,2.4,3.5,5.4c-0.8,0.5-1.9,0.3-2.5-0.4
	c-6.5-5.1-13.8-8.6-21.3-11.8C408,227.9,406.9,227.6,407,226.1z"/>
<path class="st163" d="M407,226.1c9.1,3.9,18.2,8,25.9,14.4c2.2,2.3,4.4,4.5,6.5,6.9c1.4,1.6,3.6,2.9,2.4,5.6
	c-10.1-12.1-22.6-20.7-38-24.8c-5.8-2-11.6-4-17.8-4.7c0-2.1,1.3-1.4,2.3-1C395,222,400.8,224.9,407,226.1z"/>
<path class="st164" d="M445.3,296.4c-1.9-13.5-11.5-20.3-22.3-26.1c-1.5-0.7-3-1.3-4.6-1.9c-5.2-4.1-11.7-2.8-17.6-4.4
	c-1.6-0.4-4.4,0.8-4.3-2.1c0.1-2.9,2.9-2.3,4.9-2.4c9.6-0.1,18.1,3.8,26.4,7.8c4.8,2.3,8.8,3.3,11.8-2.3c5.3,5.1,7.7,11.9,10.7,18.4
	c1.3,2.9-0.8,5.3-2,7.7C447.4,293,446.3,294.7,445.3,296.4z"/>
<path class="st165" d="M308.9,330.6c-0.3,2.7-2.4,3.1-4.4,3.4c-1.5,0.2-3.3-0.1-3.3-2c0-2.7,2.5-3.6,4.6-4
	C307.5,327.6,308.4,329.1,308.9,330.6z"/>
<path class="st166" d="M388.4,222.5l-2.3,1c-13.3-1.9-26.4-0.3-39.4,2.6C360.3,221.8,374.2,220.1,388.4,222.5z"/>
<path class="st167" d="M365.9,277.3c0.7,0.7,0.7,1.8,0.2,2.6c-3.3,4.5-6.6,9-10,13.4c-0.6,0.9-1.6,2-2.8,1.3c-1.7-1-0.1-2.3,0.1-3.5
	C356.5,285.5,359.7,280.1,365.9,277.3z"/>
<path class="st150" d="M442,322.1c0,4.9,0,9.7,0,14.6C440.1,332.1,440.1,326.8,442,322.1z"/>
<path class="st83" d="M353.5,402.7c-1.2-0.1-2.6,0.3-3.7-1c1.3-1.8,3.3-0.9,4.9-1.3C356.1,402.1,354.8,402.4,353.5,402.7z"/>
<path class="st168" d="M402.7,321.9c9.2-1.7,17.3,0,23.7,7.4c4.2,4.8,6.6,10,4.8,16.3c-1.8,6.1-6.9,8.5-12.5,9.9
	c-7.5,1.9-15.1,1.2-22.7,0.2c-6.3-2.9-11.5-6.6-11.2-14.7c0.2-8.2,5.2-13.1,11.8-16.7C398.6,323.4,400.6,322.6,402.7,321.9z"/>
<path class="st169" d="M353.3,355.8c1.2,1,3,1.5,2.8,3.6c-0.3,3.4-2.5,6.3-5.7,7.6c-3.9,1.9-8.7,1.2-11.8-1.9
	c-2.5-2.3-4.6-4.8-2-8.4C342,353.9,347.7,355.7,353.3,355.8z"/>
<path class="st170" d="M397.1,359.1c4.6,0.2,7.6,3.6,11,5.9c2.6,1.8,1.6,4.6-0.9,6.4c-4.8,2.2-9.1-0.2-13.2-1.9
	c-2.3-1-2.9-3.2-1.2-5.5C394,362.2,395,360.1,397.1,359.1z"/>
<path class="st171" d="M353.3,355.8c-5.4,3-11.1,0.9-16.7,0.9C341.1,352.3,347.4,352,353.3,355.8z"/>
<path class="st172" d="M500,304.2c5.2-3,9.7-2,15.8,3.4c-0.2,2.7,2,5.4-0.2,8c-3.9-0.2-7.5-1.3-10-4.6v0c-0.7-3.7-3.8-1.3-5.5-2.2
	C500.1,307.3,500,305.7,500,304.2z"/>
<path class="st173" d="M505.6,311c4,0,6.9,2.5,10,4.6C507.3,318.6,506.2,318,505.6,311z"/>
<path class="st173" d="M500.1,308.8c0.5-0.5,1.1-0.9,1.7-1.4c1.5-1.5,3.3-2.8,5.2-0.9s-0.8,3.1-1.3,4.6c-1.4,0.1-2.8,0.1-4.2,0.3
	C498.2,311.9,500.1,309.9,500.1,308.8z"/>
<path class="st174" d="M475.2,331.2c2.8,2.2,3.5,1.2,3.7-2c0.3-5.8,0.5-11.7,2.6-17.3c2.1-5.6,6.7-9.3,10.9-13.2
	c-4,6.5-7,13.2-7,21.1c-0.1,4.6,0.7,9.2,2.5,13.4c-2.2,3-4.5,6-6.7,9C478.3,339.1,476.3,335.4,475.2,331.2z"/>
<path class="st60" d="M501.1,342.4h11.3C508.8,344,504.7,344,501.1,342.4z"/>
<path class="st175" d="M484.5,290.9l5.5-0.5c0.3,2.4-0.5,4.8-2.1,6.6c-6.2,7-9.4,15.2-10.5,24.5c-0.3,2.4,0.5,5.8-2.8,7.3
	c-2-8.9-1.5-18.2,1.5-26.9C477.6,297.4,479.5,292.9,484.5,290.9z"/>
<path class="st176" d="M214.8,396.7c-0.2-3.4,0.7-6.5,4.1-7.8s6.2,0.5,8.4,2.9c2.2,2.3,3.6,5.2,4.2,8.4c0.6,3.6,0.8,7.4-3.2,9.2
	c-3.8,1.8-7.2,0.5-10-2.5S215,400.5,214.8,396.7z"/>
<path class="st177" d="M411.2,330.5c-0.3,2.3-1.5,3-3.2,2.6c-1.8-0.4-3-1.8-2.6-3.7s2.1-1.9,3.6-1.8
	C411,327.9,411.3,329.3,411.2,330.5z"/>
<path class="st178" d="M394,331.8c-0.2,1.3-0.4,2.6-2,2.8c-0.7,0.1-1.4-0.3-1.5-1c0-0.2,0-0.4,0-0.7c0.3-1.2,0.7-2.6,2.2-2.9
	C393.9,329.8,394,330.9,394,331.8z"/>
</svg>
