<svg id="圖層_1" data-name="圖層 1" xmlns="http://www.w3.org/2000/svg" viewBox="0 0 659.86 97.72"><defs><style>.cls-1{fill:#020202;}.cls-2{fill:#fff;}</style></defs><g id="GfxfFV.tif"><path class="cls-1" d="M205.53,98.92c-.48,0-1,.1-1.45.1q-72,0-144,0a49.61,49.61,0,0,1-27.58-7.8,47.56,47.56,0,0,1-19.67-25,47.85,47.85,0,0,1-2-24.12A47.55,47.55,0,0,1,24.31,16,47.85,47.85,0,0,1,51.41,2.08,54.84,54.84,0,0,1,60,1.56H204.08c.48,0,1,.07,1.45.11A2,2,0,0,1,206,3.27q0,14.61,0,29.22a2.45,2.45,0,0,1-.34,1.52,4.11,4.11,0,0,1-2.58.38H122.08c-3.22,0-2.91-.17-2.91,3q0,23.75,0,47.49v1.19c0,1.81.07,1.88,1.86,1.88h70.87c2.32,0,2.32,0,2.32-2.37,0-2.08,0-4.15,0-6.23,0-1-.41-1.47-1.43-1.42-.48,0-1,0-1.46,0H132.41c-3.16,0-3.22-.06-3.22-3.15q0-13.61,0-27.2v-.13c0-2.89.11-3,2.95-3h49.11c2.46,0,2.66.21,2.67,2.62,0,2.21,0,4.42,0,6.63s-.27,2.46-2.43,2.48c-2.65,0-5.3,0-8,0h-30c-.53,0-1.06,0-1.59,0a.93.93,0,0,0-1,1c-.06,2.66-.05,5.31,0,8a.91.91,0,0,0,1,1c.53,0,1.06,0,1.59,0H203a4.45,4.45,0,0,1,2.59.35,2.88,2.88,0,0,1,.38,1.9q0,14.31,0,28.61A2.43,2.43,0,0,1,205.53,98.92Z" transform="translate(-10.16 -1.35)"/><path class="cls-1" d="M205.53,33.89V1.66a9.35,9.35,0,0,1,1.05-.11c23.75,0,47.5,0,71.26.08,7,0,12.85,3.12,17.75,8a25.64,25.64,0,0,1,7.53,15.67A26.23,26.23,0,0,1,296.92,46c-5.68,6.65-13,9.72-21.73,9.71-19.11,0-38.22,0-57.32,0-1.25,0-1.49.36-1.49,1.52q.08,14.85,0,29.71c0,1.06.19,1.45,1.35,1.42,2.78-.1,5.57-.07,8.35,0,.93,0,1.19-.22,1.18-1.16,0-6.41,0-12.83-.05-19.24,0-1.14.33-1.35,1.4-1.35q12.07.07,24.15,0a2.27,2.27,0,0,1,1.84.78c6.24,6.7,12.51,13.37,18.74,20.07a2.34,2.34,0,0,0,1.92.89c4,0,8,0,12.26,0l-20.1-21.42c.19-.46.56-.26.82-.26,4.29,0,8.58,0,12.87,0a1.69,1.69,0,0,1,1.42.48q14.81,15.85,29.64,31.66c-.18.44-.54.27-.81.27q-20.5,0-41,0a2.2,2.2,0,0,1-1.78-.88c-6.17-6.59-12.36-13.15-18.51-19.75a2.6,2.6,0,0,0-2.16-1q-4.38.09-8.76,0c-.89,0-1.09.28-1.09,1.12,0,6.41,0,12.83,0,19.24,0,.86-.14,1.23-1.13,1.23-10.13,0-20.26,0-30.39,0-.35,0-.7-.07-1.05-.1q0-16.14,0-32.27a2.63,2.63,0,0,1-.42-1.89q0-9,0-17.91c0-2.18.23-2.41,2.45-2.41h57.06c3.81,0,7.61,0,11.41,0a15.84,15.84,0,0,0,3.79-31.27,20.29,20.29,0,0,0-4.86-.54H219.1c-.22,0-.44,0-.66,0-1.45,0-1.6.15-1.61,1.6,0,2.34,0,4.69,0,7,0,1,.37,1.49,1.4,1.42.44,0,.88,0,1.33,0q27.39,0,54.8,0a6.5,6.5,0,0,1,4.85,1.73A5.72,5.72,0,0,1,277,34a9.51,9.51,0,0,1-3,.42H207.5C206.82,34.37,206.07,34.53,205.53,33.89Z" transform="translate(-10.16 -1.35)"/><path class="cls-1" d="M518.45,54.75,465.32,1.64c.11-.26.47-.08.74-.08,4.42,0,8.84,0,13.27,0a2.36,2.36,0,0,1,1.81.86Q493.71,15,506.31,27.51c.34.34.65.72,1,1.15a2.15,2.15,0,0,0,.22-1.49c0-8.09,0-16.18,0-24.28,0-1.11.27-1.37,1.37-1.37q14.87.08,29.73,0c1.1,0,1.39.27,1.39,1.38q-.06,47.36,0,94.71c0,1.18-.29,1.52-1.46,1.44a42.33,42.33,0,0,0-4.91,0,2.8,2.8,0,0,1-2.3-1Q493,59.65,454.51,21.26a8.69,8.69,0,0,1-.84-1.13c-.64.42-.44.81-.44,1.12q0,32.89,0,65.79c0,1,.27,1.33,1.31,1.3q4.17-.11,8.36,0c1,0,1.23-.29,1.23-1.26,0-13.49,0-27,0-40.46V46c.48-.08.62.32.85.54,3.1,3.09,6.19,6.2,9.3,9.27a2.22,2.22,0,0,1,.73,1.73q0,20.17,0,40.33c0,1-.27,1.23-1.25,1.23q-15-.06-30,0c-1,0-1.23-.29-1.22-1.26q0-47.49,0-95c0-1.08.33-1.32,1.34-1.28,2.07.08,4.38-.52,6.16.21s3.06,2.71,4.53,4.18l73.66,73.63c.31.3.63.59,1.12,1.07V79.15q0-32.7,0-65.39c0-1.17-.23-1.58-1.49-1.53-2.69.1-5.39.08-8.09,0-1,0-1.32.25-1.32,1.3,0,13.4,0,26.8,0,40.21Z" transform="translate(-10.16 -1.35)"/><path class="cls-1" d="M652.37,88.32,607.88,1.55c4,0,7.85,0,11.68,0,.79,0,.87.64,1.12,1.12q9.89,19.27,19.75,38.55,14.52,28.31,29,56.61c.18.35.33.7.56,1.21h-1.41c-11.06,0-22.12,0-33.18,0a1.82,1.82,0,0,1-1.9-1.17q-19.81-39-39.69-77.88c-.17-.34-.37-.68-.62-1.13L557.75,88.31c3.7,0,7.18,0,10.67,0,.85,0,1-.57,1.26-1.1l16.2-31.75,7.3-14.31c1.94,3.83,3.83,7.6,5.76,11.35a1.41,1.41,0,0,1-.13,1.46Q595.92,59.7,593,65.41l-.58,1.19c4.08,0,8,.07,11.92,0A2.35,2.35,0,0,1,607,68.15c1.46,3.09,3.08,6.1,4.73,9.32h-1.57c-7.35,0-14.69,0-22,0a1.69,1.69,0,0,0-1.79,1.12c-3.29,6.52-6.64,13-9.95,19.52-.31.6-.59,1-1.36,1q-17.12,0-34.24,0a3.26,3.26,0,0,1-.41,0c-.14-.45.21-.73.38-1.06Q565,50.29,589.29,2.64a1.66,1.66,0,0,1,1.81-1.11c1.85.12,4.07-.65,5.45.28s1.76,3.05,2.58,4.66q20.61,40.41,41.18,80.82a1.61,1.61,0,0,0,1.71,1C645.38,88.28,648.74,88.32,652.37,88.32Z" transform="translate(-10.16 -1.35)"/><path class="cls-1" d="M365.56,18.84,330.27,88.08c.39.39.81.22,1.17.23,3,0,5.93,0,8.89,0a1.68,1.68,0,0,0,1.78-1.12Q353.54,64.66,365,42.14c.12-.24.25-.47.38-.71.45,0,.48.47.63.75,1.71,3.32,3.4,6.66,5.13,10a1.84,1.84,0,0,1,0,1.93c-2.15,4.09-4.22,8.21-6.34,12.37a1.7,1.7,0,0,0,1.14.15h11.54c.46,0,1-.16,1.26.44,1.69,3.41,3.41,6.82,5.13,10.26a2.77,2.77,0,0,1-1.48.15c-7.3,0-14.6,0-21.9,0a1.81,1.81,0,0,0-1.87,1.2c-3.27,6.49-6.59,12.94-9.89,19.41a1.44,1.44,0,0,1-1.46,1c-11.37,0-22.74,0-34.11,0-.13,0-.26,0-.4,0-.2-.51.19-.83.37-1.19q24.27-47.58,48.53-95.15a1.65,1.65,0,0,1,1.8-1.11,35.28,35.28,0,0,0,4.24,0,1.65,1.65,0,0,1,1.8,1.1q10.07,19.85,20.19,39.66,11.41,22.41,22.81,44.83a1.89,1.89,0,0,0,2,1.23c3.34-.09,6.69,0,10,0a2.43,2.43,0,0,0-.48-1.31Q402.51,44.9,380.9,2.79c-.54-1-.5-1.29.73-1.26,3.27.06,6.54,0,9.82,0a1.39,1.39,0,0,1,1.44.84q24.6,48.08,49.23,96.13c.05.11.09.23.14.36A2,2,0,0,1,441,99c-11.06,0-22.12,0-33.18,0a1.88,1.88,0,0,1-2-1.26Q386.1,59,366.32,20.24C366.13,19.85,365.91,19.48,365.56,18.84Z" transform="translate(-10.16 -1.35)"/><path class="cls-2" d="M205.53,33.89c.44,0,.88.07,1.32.07h67.41a6,6,0,0,0,5.08-2.05,5.1,5.1,0,0,0,.75-5.59,5.14,5.14,0,0,0-4.9-3.23q-28.59,0-57.19,0c-1.38,0-1.67-.37-1.62-1.66.1-2.7.06-5.4,0-8.09,0-.83.17-1.14,1.08-1.14,19.55,0,39.1,0,58.65,0A16.32,16.32,0,0,1,292.51,28c.49,8-5.8,15.55-13.81,16.69a22.51,22.51,0,0,1-3.17.21h-68.2c-2,0-1.71-.29-1.72,1.78,0,6.68-.05,13.35-.07,20-.53,0-1.06,0-1.59,0q-31,0-62,0c-1.16,0-1.59-.22-1.54-1.48.11-2.74.09-5.48,0-8.22,0-1,.27-1.23,1.24-1.23,13.45,0,26.89,0,40.34.06,1.25,0,1.52-.36,1.48-1.53-.08-2.78-.05-5.57,0-8.35,0-.79-.15-1.05-1-1.05q-25.95,0-51.88,0c-.82,0-1,.21-1,1q0,15.26,0,30.5c0,1.18.55,1.12,1.35,1.12q31,0,62.1,0c1.34,0,1.81.27,1.74,1.69-.12,2.7-.07,5.4,0,8.09,0,.89-.26,1.11-1.12,1.11q-36.88,0-73.78,0c-.94,0-1.16-.28-1.16-1.19q0-26,0-52c0-1.21.51-1.2,1.4-1.2h83.85C204.47,34,205,33.92,205.53,33.89Z" transform="translate(-10.16 -1.35)"/><path class="cls-2" d="M125.89,23.1H60c-8.39,0-15.54,2.91-21.21,9.16a25.71,25.71,0,0,0-6.55,14.19A26.28,26.28,0,0,0,39.41,69a25.08,25.08,0,0,0,17.78,8.26c12.73.42,25.47.1,38.21.14,1.23,0,1.67.22,1.62,1.56-.12,2.78-.07,5.57,0,8.35,0,.78-.17,1.07-1,1.06-12.3,0-24.59.1-36.89,0A37.48,37.48,0,0,1,29.74,74.49a36.72,36.72,0,0,1-8.19-17.95,38,38,0,0,1,20.09-40,38.73,38.73,0,0,1,18.11-4.25q66.81,0,133.62,0c1.1,0,1.43.26,1.39,1.38-.08,2.73-.08,5.48,0,8.22,0,1.08-.32,1.29-1.33,1.29Q159.66,23.09,125.89,23.1Z" transform="translate(-10.16 -1.35)"/><path class="cls-2" d="M81.84,66.37c-8,0-15.93.13-23.88,0A15.92,15.92,0,0,1,43.08,53.51,16.32,16.32,0,0,1,57.24,34a14.44,14.44,0,0,1,1.86,0q18.32,0,36.62,0c1.07,0,1.29.31,1.28,1.32,0,4.64,0,9.28,0,13.93,0,.93.25,1.19,1.18,1.17,2.87-.06,5.75,0,8.62,0,.87,0,1.12.23,1.11,1.1,0,4.64-.05,9.28,0,13.92,0,1-.39,1.12-1.24,1.12-8.26,0-16.53,0-24.8,0Z" transform="translate(-10.16 -1.35)"/></g></svg>