<?xml version="1.0" encoding="utf-8"?><svg xml:space="preserve" viewBox="0 0 100 100" y="0" x="0" xmlns="http://www.w3.org/2000/svg" id="Layer_1" version="1.1" width="200px" height="200px" xmlns:xlink="http://www.w3.org/1999/xlink" style="width:100%;height:100%;background-size:initial;background-repeat-y:initial;background-repeat-x:initial;background-position-y:initial;background-position-x:initial;background-origin:initial;background-image:initial;background-color:rgb(255, 255, 255);background-clip:initial;background-attachment:initial;animation-play-state:paused" ><g class="ldl-scale" style="transform-origin:50% 50%;transform:rotate(0deg) scale(0.8, 0.8);animation-play-state:paused" ><g style="animation-play-state:paused" ><path d="M68.1 58h19.1v3.9H68.1z" fill="#a8b980" style="fill:rgb(168, 185, 128);animation-play-state:paused" ></path>
<path d="M68.1 38.7h24.4v3.9H68.1z" fill="#a8b980" style="fill:rgb(168, 185, 128);animation-play-state:paused" ></path>
<path d="M68.1 48.3h22v3.9h-22z" fill="#a8b980" style="fill:rgb(168, 185, 128);animation-play-state:paused" ></path></g>
<path fill="#f4e6c8" d="M13 66.8h44.1c.1 0 .2-.1.2-.2V45.1L37.8 57.3c-1.7 1.1-3.8 1.1-5.6 0L12.8 45.1v21.4c0 .2.1.3.2.3z" style="fill:rgb(244, 230, 200);animation-play-state:paused" ></path>
<path fill="#f7b26a" d="M15.4 40.6l17.9 11.1c1.1.7 2.4.7 3.5 0l17.9-11.1c1.7-1 2.7-2.8 2.7-4.8v-2.3c0-.1-.1-.2-.2-.2H13c-.1 0-.2.1-.2.2v2.3c0 2 1 3.8 2.6 4.8z" style="fill:rgb(247, 178, 106);animation-play-state:paused" ></path>
<path fill="#333" d="M12 72h46.2c2.5 0 4.5-2 4.5-4.5V32.3c0-2.4-1.9-4.3-4.3-4.3H11.8c-2.4 0-4.3 1.9-4.3 4.3v35.3c0 2.4 2 4.4 4.5 4.4zm.8-38.5c0-.1.1-.2.2-.2h44.1c.1 0 .2.1.2.2v2.3c0 2-1 3.8-2.7 4.8L36.8 51.7c-1.1.7-2.4.7-3.5 0L15.4 40.6c-1.7-1-2.7-2.8-2.7-4.8v-2.3zm0 11.6l19.5 12.1c1.7 1.1 3.8 1.1 5.6 0l19.5-12.1v21.4c0 .1-.1.2-.2.2H13c-.1 0-.2-.1-.2-.2V45.1z" style="fill:rgb(51, 51, 51);animation-play-state:paused" ></path>
<metadata xmlns:d="https://loading.io/stock/" style="animation-play-state:paused" ><d:name style="animation-play-state:paused" >send mail</d:name>
<d:tags style="animation-play-state:paused" >email,envelope,packet,message,notification,information,letter,send mail,web application</d:tags>
<d:license style="animation-play-state:paused" >by</d:license>
<d:slug style="animation-play-state:paused" >qp2r4t</d:slug></metadata></g><!-- generated by https://loading.io/ --></svg>